<?xml version="1.0" encoding="UTF-8" standalone="no"?>
<!-- Created with Inkscape (http://www.inkscape.org/) -->

<svg
   width="256"
   height="228.83659"
   viewBox="0 0 67.733333 60.546348"
   version="1.1"
   id="svg5"
   xml:space="preserve"
   sodipodi:docname="main.svg"
   inkscape:export-filename="main128.png"
   inkscape:export-xdpi="48"
   inkscape:export-ydpi="48"
   inkscape:version="1.3 (0e150ed6c4, 2023-07-21)"
   xmlns:inkscape="http://www.inkscape.org/namespaces/inkscape"
   xmlns:sodipodi="http://sodipodi.sourceforge.net/DTD/sodipodi-0.dtd"
   xmlns="http://www.w3.org/2000/svg"
   xmlns:svg="http://www.w3.org/2000/svg"><sodipodi:namedview
     id="namedview7"
     pagecolor="#1e1e1e"
     bordercolor="#000000"
     borderopacity="0.25"
     inkscape:showpageshadow="2"
     inkscape:pageopacity="0"
     inkscape:pagecheckerboard="0"
     inkscape:deskcolor="#222222"
     inkscape:document-units="mm"
     showgrid="true"
     showborder="false"
     inkscape:zoom="1.4142136"
     inkscape:cx="44.901281"
     inkscape:cy="103.59114"
     inkscape:window-width="1920"
     inkscape:window-height="1024"
     inkscape:window-x="1920"
     inkscape:window-y="32"
     inkscape:window-maximized="1"
     inkscape:current-layer="layer1"><inkscape:grid
       type="xygrid"
       id="grid736"
       originx="33.86667"
       originy="26.756335"
       spacingx="0.26458333"
       enabled="false"
       visible="true"
       spacingy="1"
       units="mm" /></sodipodi:namedview><defs
     id="defs2"><rect
       x="295"
       y="24"
       width="921"
       height="558"
       id="rect8048" /><rect
       x="38.000004"
       y="213"
       width="265"
       height="105.00001"
       id="rect27115" /></defs><g
     inkscape:label="Layer 1"
     inkscape:groupmode="layer"
     id="layer1"
     transform="translate(3.8009933e-7,-1.8812758)"><path
       style="display:inline;fill:#ececec;fill-opacity:1;stroke-width:0.165898"
       d="m 37.741636,61.704946 c -3.051193,-1.759633 -3.645419,-2.092506 -3.735415,-2.092506 -0.05272,0 -1.011712,0.522576 -2.131106,1.161281 -2.333741,1.331589 -2.994568,1.465351 -3.577584,0.724167 -0.420121,-0.534099 -0.442474,-1.237663 -0.05352,-1.68458 0.323964,-0.372237 5.453411,-3.352917 5.770031,-3.352917 0.348434,0 5.948727,3.311284 6.340471,3.748932 0.53656,0.599428 0.485281,1.270138 -0.137156,1.793882 -0.280729,0.23622 -0.672661,0.427195 -0.87096,0.42439 C 39.1481,62.424695 38.425954,62.0996 37.741626,61.704946 Z M 16.596645,61.316299 c -1.439368,-0.36562 -2.092279,-2.234364 -1.165483,-3.3358 0.229604,-0.272869 1.815996,-1.300672 3.52532,-2.284011 1.709322,-0.98334 5.779226,-3.336961 9.044231,-5.23027 l 5.936372,-3.442378 3.934519,2.283596 c 2.163984,1.255977 6.099475,3.533431 8.745537,5.061011 2.646062,1.527579 4.989312,2.952481 5.207226,3.166447 0.279893,0.27483 0.415875,0.624693 0.463225,1.191815 0.0807,0.966691 -0.161268,1.482802 -0.944795,2.015208 -0.954188,0.648362 -1.50302,0.476438 -5.057451,-1.584263 C 44.551721,58.152576 41.06433,56.131428 38.53559,54.666216 L 33.937879,52.002192 26.760852,56.16027 C 17.0931,61.761373 17.512086,61.548832 16.596645,61.316299 Z M 1.2560208,60.160656 C 0.35267496,59.685247 -3.8009933e-7,59.073727 -3.8009933e-7,57.982776 -3.8009933e-7,57.344477 0.09762124,56.897205 0.30295002,56.594658 0.47299492,56.344113 1.6374863,55.553037 2.9573063,54.791471 6.3376916,52.840915 15.979037,47.25493 22.727931,43.336799 c 5.772943,-3.351534 5.812142,-3.370995 6.80179,-3.377074 0.741466,-0.0045 1.110361,0.07852 1.446113,0.325681 1.182661,0.870586 1.278384,2.781624 0.188369,3.760635 -0.295181,0.265121 -1.662018,1.065136 -12.500756,7.316744 -2.691685,1.552519 -7.279618,4.204027 -10.195414,5.892237 -5.7190741,3.311279 -6.1280974,3.476072 -7.2120122,2.905634 z m 63.4439252,0.167949 c -0.182491,-0.05001 -2.422102,-1.30269 -4.976917,-2.78375 C 57.16821,56.063794 51.867792,53.000465 47.94432,50.737453 37.562082,44.749109 36.562321,44.146722 36.204373,43.663779 c -0.44085,-0.594796 -0.559102,-1.78127 -0.2389,-2.396972 0.464264,-0.892701 1.034283,-1.279405 2.004503,-1.359863 0.848102,-0.07034 0.983655,-0.02281 2.614159,0.916581 1.973619,1.137061 12.903363,7.456156 21.015481,12.150223 3.269619,1.891957 5.635656,3.36464 5.794034,3.606354 0.147212,0.2247 0.296082,0.793603 0.330777,1.264227 0.07046,0.955046 -0.277907,1.702889 -1.019478,2.188781 -0.447488,0.293213 -1.465697,0.443274 -2.005003,0.295495 z M 7.2994798,46.680077 C 6.6699125,46.419669 6.1855167,45.72254 6.098651,44.951868 5.980379,43.902499 6.4500342,43.202657 7.76194,42.473412 c 0.5668388,-0.315088 3.120922,-1.784025 5.675741,-3.264307 2.55482,-1.48028 5.70807,-3.29943 7.007224,-4.042556 l 2.362099,-1.351139 0.002,-9.016329 c 0.0022,-10.164408 -0.0322,-9.866743 1.213314,-10.50216 0.754956,-0.385151 1.477967,-0.342466 2.198752,0.12981 0.909899,0.596187 0.903705,0.51591 0.897206,11.627651 l -0.0059,10.249487 -5.897317,3.400893 C 8.8308337,46.846563 8.8445651,46.839038 8.2186891,46.827829 7.8956963,46.8221 7.4821223,46.755565 7.2996346,46.68007 Z M 51.925201,43.005679 c -3.649381,-2.107966 -7.30712,-4.222968 -8.128313,-4.700002 -0.821192,-0.477035 -1.941,-1.126261 -2.488461,-1.442726 L 40.313044,36.28756 40.270331,26.009807 c -0.04031,-9.698912 -0.02557,-10.309715 0.261663,-10.8453 0.329723,-0.614805 1.199862,-1.173824 1.827108,-1.173824 0.586446,0 1.508911,0.491342 1.823479,0.971257 0.248827,0.379616 0.286575,1.386723 0.360846,9.62717 l 0.08294,9.203202 0.829488,0.487899 c 0.853384,0.501957 3.290616,1.908936 10.783322,6.225059 4.667457,2.688658 5.059869,3.015688 5.059869,4.216825 0,1.229173 -0.880255,2.116253 -2.099967,2.116253 -0.531029,0 -1.756734,-0.645835 -7.273887,-3.832669 z M 32.982913,38.030581 c -0.711519,-0.208152 -1.51117,-1.038833 -1.628498,-1.691691 -0.05265,-0.292993 -0.07414,-7.872818 -0.04777,-16.844059 0,0 -0.06009,-15.43822 0.125223,-16.3253902 0.185304,-0.8871703 1.482299,-1.2862679 2.197405,-1.288165 0.983234,0.00116 1.676923,0.252285 2.138554,1.100679 0.261361,0.4803353 0.312709,1.0897932 0.313761,16.9614492 0.0011,16.451663 3.31e-4,16.488412 -0.346717,17.04997 -0.553213,0.895113 -1.726304,1.337252 -2.75194,1.037207 z m -20.683891,-3.7401 c -0.525314,-0.525318 -0.565746,-1.17955 -0.1088,-1.760472 0.180714,-0.229743 1.225868,-0.925758 2.322561,-1.546704 l 1.99399,-1.128989 v -2.962438 c 0,-2.924108 0.0052,-2.967707 0.407203,-3.369641 0.454375,-0.454374 1.310337,-0.541214 1.784413,-0.181035 0.535068,0.406515 0.628637,1.08831 0.628637,4.580456 v 3.457843 l -2.8931,1.674172 c -1.591206,0.920793 -3.0741,1.674172 -3.295323,1.674172 -0.221225,0 -0.599038,-0.196813 -0.839589,-0.437364 z m 38.797346,-1.202143 -2.820255,-1.632322 -0.04696,-3.465426 c -0.02582,-1.905987 -0.0062,-3.631334 0.04349,-3.834105 0.233907,-0.953642 1.487509,-1.354504 2.266171,-0.724649 0.382186,0.309151 0.392891,0.390621 0.443076,3.372048 l 0.05143,3.055245 1.85639,1.061821 c 2.651554,1.516639 3.100493,2.044697 2.575832,3.029789 -0.271155,0.50911 -0.650818,0.766275 -1.134186,0.768238 -0.228106,9.94e-4 -1.683856,-0.732862 -3.234997,-1.630639 z"
       id="path7516-5"
       sodipodi:nodetypes="sssssssscssssscssssssscssssssscssssssssssssssssscssssccssccscccssscssssscsssssssszcsccssssscscsscssssccscsscsscsc"
       inkscape:label="School Logo" /><path
       id="path7516"
       style="display:none;fill:#4f9aff;fill-opacity:1;stroke-width:0.136088"
       inkscape:label="School Logo"
       d="m 33.671847,9.0330404 c -0.0422,1.119e-4 -0.09136,0.00579 -0.137977,0.0093 -0.127813,0.1618545 -0.267237,0.31633 -0.428914,0.4537191 -0.347703,0.2954691 -0.781529,0.5811735 -1.259871,0.8443925 -0.0043,0.06682 -0.008,0.164472 -0.01189,0.253215 0.162608,-0.08659 0.321851,-0.175837 0.461987,-0.260966 0.71039,-0.4315458 1.185842,-0.8324787 1.51567,-1.2944947 -0.04641,-0.00157 -0.09092,-0.00511 -0.139009,-0.00517 z m -0.562757,0.079065 c -0.19744,0.049394 -0.40052,0.1221292 -0.585494,0.2216919 -0.154051,0.1154008 -0.319681,0.2355216 -0.3514,0.2501139 -0.0011,5.254e-4 -0.0016,-3.356e-4 -0.0026,0 -0.148566,0.140296 -0.25885,0.3077542 -0.30024,0.5059118 -0.0019,0.0092 -0.0033,0.04178 -0.0052,0.05478 0.06969,-0.03788 0.09105,-0.05487 0.116789,-0.08061 0.03063,-0.03063 0.07015,-0.083542 0.08733,-0.117822 0.02996,-0.059762 0.03634,-0.065937 0.160197,-0.1441772 0.352501,-0.2226762 0.640812,-0.4487418 0.880566,-0.6898804 z m 2.428792,2.3280236 c -0.04376,0.0048 -0.08506,0.01487 -0.120406,0.031 l -0.07751,0.03566 -1.049549,1.054199 -1.049031,1.0542 -0.02791,0.08578 c -0.03428,0.104677 -0.02933,0.240507 0.0124,0.334347 0.02974,0.06736 0.05555,0.09419 0.646472,0.686263 l 0.61495,0.615983 h 0.05684 c 0.07456,-1.7e-5 0.133409,-0.05421 0.139009,-0.128674 l 0.0036,-0.05116 -0.596346,-0.605648 c -0.662397,-0.673191 -0.640999,-0.647198 -0.610299,-0.751892 0.01336,-0.04559 0.07697,-0.111591 1.020609,-1.055233 0.943642,-0.943642 1.009127,-1.006732 1.054716,-1.020092 0.0182,-0.0053 0.04291,-0.0019 0.06615,0 -0.0028,-0.09858 -0.0057,-0.196965 -0.0088,-0.283704 -0.02509,-6.38e-4 -0.05062,-0.0037 -0.07493,-10e-4 z m -0.476973,1.39578 -0.506946,0.506946 -0.506946,0.507462 v 0.05684 0.05684 l 0.886251,0.88625 0.735873,0.735873 c -7.09e-4,-0.14052 -0.0018,-0.258519 -0.0026,-0.391708 l -0.538985,-0.538985 -0.748792,-0.748275 0.369487,-0.369486 0.369486,-0.369487 0.538985,0.538469 c -0.0015,-0.154298 -0.004,-0.253157 -0.0057,-0.394291 L 35.174565,12.8359 h -0.05684 z m -0.05633,2.664437 c -0.0785,-0.01447 -0.160719,0.043 -0.160714,0.136942 10e-6,0.04456 0.0092,0.066 0.04082,0.09767 0.08858,0.08858 0.234618,0.02758 0.234611,-0.09767 -10e-6,-0.04456 -0.0086,-0.06548 -0.04031,-0.09715 -0.02214,-0.02215 -0.04825,-0.03497 -0.07441,-0.03979 z m 0.456819,0.432015 -0.05064,0.0036 c -0.07447,0.0056 -0.129191,0.06442 -0.129191,0.13901 v 0.05684 l 0.392225,0.392224 c -4.1e-4,-0.111705 -5.93e-4,-0.276211 -10e-4,-0.383956 z m -2.78846,2.527494 c -0.02996,-0.001 -0.05967,0.009 -0.0801,0.02946 -0.04725,0.04726 -0.256377,0.403674 -0.281637,0.480074 -0.01344,0.04064 -0.02319,0.310814 -0.02429,0.683679 l -0.0016,0.615983 -0.131258,0.0026 c -0.113995,0.0019 -0.136926,0.0072 -0.173116,0.04341 -0.04073,0.04074 -0.04134,0.07948 -0.04134,1.738912 -10e-6,1.588324 0.0024,1.699461 0.03721,1.734261 0.02341,0.0234 0.05523,0.0378 0.0863,0.03876 l 0.04961,0.0016 v 0.307991 c 3.47e-4,0.391358 -0.0039,0.384641 0.259415,0.383956 h 0.182418 l 0.0078,0.134876 c 0.0042,0.07421 0.02392,0.440302 0.04392,0.813903 0.03213,0.600057 0.04183,0.694269 0.08165,0.807703 0.05393,0.153615 0.106938,0.237679 0.223759,0.3545 0.150535,0.150535 0.329144,0.234036 0.547254,0.256315 0.178973,0.01829 0.415892,-0.04253 0.587561,-0.151411 0.06173,-0.03915 0.226944,-0.215354 0.267684,-0.285254 0.02415,-0.04145 0.05938,-0.123548 0.07803,-0.182418 0.01866,-0.05886 0.130705,-0.673642 0.24908,-1.366325 0.118378,-0.692685 0.226526,-1.291401 0.240296,-1.330151 0.0863,-0.242929 0.325027,-0.39421 0.604614,-0.38344 0.07605,0.0029 0.138521,0.01619 0.19637,0.03979 -2.2e-5,-0.1096 3e-5,-0.158923 0,-0.26665 -0.29127,-0.08113 -0.617374,-0.0058 -0.837158,0.21394 -0.115267,0.115269 -0.169397,0.202783 -0.212907,0.342615 -0.01904,0.06119 -0.129969,0.670329 -0.246496,1.353406 -0.116527,0.683077 -0.224489,1.280634 -0.239779,1.328084 -0.03928,0.121888 -0.126279,0.240119 -0.229443,0.311609 -0.423804,0.293695 -0.985353,0.02542 -1.021643,-0.487825 -0.02263,-0.320105 -0.0804,-1.489016 -0.0739,-1.495516 0.0043,-0.0043 0.08086,-0.0075 0.170016,-0.0072 0.23955,8.01e-4 0.238401,0.0027 0.238745,-0.382922 v -0.306958 l 0.05271,-0.0062 c 0.03173,-0.0038 0.0686,-0.0221 0.09198,-0.04548 0.03712,-0.0371 0.03889,-0.118079 0.03927,-1.730127 4e-4,-1.683414 2.72e-4,-1.691098 -0.04341,-1.734778 -0.03923,-0.03918 -0.05807,-0.04393 -0.1757,-0.04393 h -0.131258 l 0.0026,-0.59893 c 0.0021,-0.460823 -0.0038,-0.620054 -0.02635,-0.692464 -0.02959,-0.09516 -0.221037,-0.421025 -0.284737,-0.484725 -0.02184,-0.02182 -0.0522,-0.03362 -0.08217,-0.03462 z m 10e-4,0.391707 c 0.01592,0 0.105826,0.142837 0.121956,0.193787 0.0072,0.02265 0.01215,0.07319 0.01137,0.112655 l -0.0015,0.07183 -0.128675,-5.17e-4 -0.129191,-5.17e-4 -0.0016,-0.06614 c -9.3e-4,-0.03615 0.0067,-0.0911 0.01705,-0.122474 0.02202,-0.06661 0.09363,-0.188619 0.110588,-0.188619 z m -5.877678,0.168466 -0.08992,0.08992 -0.05684,-0.0124 c -0.08503,-0.01837 -0.138624,0.0048 -0.235644,0.101803 -0.09779,0.09776 -0.12123,0.150881 -0.10387,0.236161 l 0.01189,0.05891 -0.07028,0.0708 c -0.1117,0.112346 -0.136231,0.226488 -0.07493,0.346749 0.05417,0.106274 0.189637,0.165379 0.308508,0.134359 0.05617,-0.01467 0.08294,-0.03158 0.151412,-0.09353 0.08,-0.07246 0.08484,-0.07493 0.129708,-0.06563 0.08928,0.01847 0.128895,0.0041 0.222725,-0.08268 0.07255,-0.06708 0.08885,-0.08895 0.106971,-0.141077 0.0123,-0.03527 0.0162,-0.08302 0.0093,-0.112138 l -0.01188,-0.05064 0.293522,-0.296622 c -0.068,-0.03502 -0.135966,-0.06419 -0.204122,-0.08992 l -0.22996,0.22996 -0.04599,-0.04651 -0.04651,-0.04599 0.183451,-0.181384 c -0.08224,-0.02339 -0.164865,-0.04019 -0.24753,-0.05013 z m -0.794267,0.104386 c -0.07003,0.02691 -0.140163,0.05748 -0.210839,0.09353 -0.06427,0.03279 -0.124122,0.06241 -0.180351,0.09147 0.04406,0.01326 0.08999,0.02059 0.133842,0.01292 l 0.06821,-0.01189 z m 0.599964,0.164331 0.152445,0.152446 0.152446,0.152445 -0.05116,0.05064 -0.05064,0.05116 -0.146244,-0.146761 c -0.08049,-0.08049 -0.146244,-0.151847 -0.146244,-0.158647 -10e-6,-0.0068 0.01987,-0.03227 0.04444,-0.05684 z m 1.22008,0.197404 c -0.11477,0.117753 -0.506943,0.508839 -0.509012,0.515731 -0.0047,0.01553 -0.0034,0.04113 0.0031,0.05684 0.01632,0.03926 0.06044,0.06603 0.102836,0.06253 0.01969,-0.0016 0.174695,-0.149901 0.5302,-0.502811 -0.03823,-0.0506 -0.08094,-0.09354 -0.127124,-0.132292 z m 4.723743,0.0036 h 0.130741 0.130225 v 0.130225 0.130225 l -0.129708,-5.17e-4 -0.129708,-5.17e-4 -5.16e-4,-0.129708 z m -6.073531,0.149862 0.04651,0.04651 0.04599,0.04599 -0.05839,0.05891 c -0.04507,0.04508 -0.0662,0.05804 -0.09095,0.05684 -0.03662,-0.0018 -0.0549,-0.01733 -0.0646,-0.05426 -0.0054,-0.02045 0.0059,-0.03796 0.05736,-0.0894 z m -1.350822,0.10697 c -0.02888,0.05496 -0.05511,0.118896 -0.07906,0.190686 0.815349,0.811958 1.131542,1.122211 1.170471,1.135332 0.07007,0.02362 0.171776,0.02362 0.241846,0 0.05104,-0.0172 0.07814,-0.04226 0.395841,-0.355018 l 0.341582,-0.335896 -0.0052,-0.04393 c -0.0067,-0.0555 -0.03481,-0.08393 -0.0894,-0.09043 l -0.04289,-0.0052 -0.320394,0.315227 c -0.307328,0.302047 -0.322519,0.315344 -0.365869,0.321944 -0.02488,0.0038 -0.0667,-2.85e-4 -0.09302,-0.0088 -0.03259,-0.01052 -0.366355,-0.338596 -1.153935,-1.123963 z m 17.229956,0.05684 -0.942578,0.942579 -1.382861,1.382861 -0.001,0.04186 -0.0015,0.04186 0.483174,0.483174 0.482658,0.482658 0.04186,0.001 0.04237,0.0016 1.382344,-1.382345 0.08682,-0.08682 c -0.0028,-0.09563 -0.0053,-0.209115 -0.0083,-0.295072 -0.01919,0.01998 -0.01826,0.02136 -0.04237,0.04547 l -0.133325,0.133325 -0.555522,-0.185002 c -0.305411,-0.101856 -0.557156,-0.187152 -0.559656,-0.189652 -0.0025,-0.0025 0.05519,-0.065 0.128675,-0.138493 l 0.133842,-0.133325 0.555005,0.185002 c 0.256125,0.08542 0.404387,0.136059 0.469738,0.159163 -0.0037,-0.09819 -0.0084,-0.158303 -0.0124,-0.243913 l -0.2651,-0.08837 c -0.305409,-0.101856 -0.557673,-0.187669 -0.560173,-0.190169 -0.0025,-0.0025 0.0557,-0.06449 0.129191,-0.137976 l 0.133326,-0.133842 0.543636,0.180868 c -0.0064,-0.09644 -0.01399,-0.168147 -0.02119,-0.244947 -0.138192,-0.04666 -0.333367,-0.112192 -0.334863,-0.113688 -0.0025,-0.0025 0.05518,-0.065 0.128674,-0.138493 l 0.133842,-0.133842 0.02636,0.0088 C 42.40894,19.939256 42.38235,19.86136 42.35144,19.803444 Z m -9.812321,0.206706 h 0.133842 0.133842 v 0.130225 0.130224 l -0.136426,-5.16e-4 -0.136426,-5.17e-4 0.0026,-0.129708 z m -0.339514,0.520382 h 0.47749 0.476974 v 0.997872 0.997355 H 32.68789 c -0.256178,1e-4 -0.470773,-0.0021 -0.476973,-0.0052 -0.0063,-0.0031 -0.01142,-0.452155 -0.01137,-0.997872 z m 8.856307,0.868164 0.555522,0.185001 c 0.305407,0.101855 0.557155,0.18767 0.559655,0.19017 0.0025,0.0025 -0.05518,0.06449 -0.128674,0.137976 l -0.133842,0.133842 -0.555005,-0.185002 c -0.30541,-0.101856 -0.557672,-0.187669 -0.560172,-0.190169 -0.0025,-0.0025 0.0557,-0.06449 0.129191,-0.137976 z m -0.449585,0.450102 0.555005,0.185001 c 0.305408,0.101857 0.557672,0.187153 0.560172,0.189653 0.0025,0.0025 -0.0557,0.065 -0.129191,0.138493 l -0.133325,0.133842 -0.555522,-0.185519 C 40.598,22.208388 40.346254,22.123093 40.343754,22.120593 c -0.0025,-0.0025 0.05518,-0.065 0.128674,-0.138493 z m -0.0646,0.579809 0.359668,0.118339 c 0.197905,0.06499 0.36322,0.12094 0.36742,0.12454 0.0041,0.0035 -0.0472,0.06167 -0.114205,0.128675 l -0.121956,0.121956 -0.245464,-0.246497 z m 2.019515,0.01447 -1.110526,1.110009 -0.001,0.04238 -0.0016,0.04186 0.332796,0.332796 c 0.328816,0.328838 0.333611,0.333047 0.375171,0.334347 l 0.04186,0.001 0.387057,-0.387056 c -0.0011,-0.07895 -0.002,-0.220794 -0.0031,-0.296623 l -0.42478,0.42478 -0.224793,-0.224792 -0.224792,-0.225309 0.858862,-0.858863 c -0.0017,-0.09356 -0.0034,-0.207079 -0.0052,-0.294555 z m -15.983003,0.295589 c -0.05422,-0.0111 -0.116221,0.01318 -0.141594,0.06356 -0.01318,0.0262 -0.01985,0.171332 -0.01912,0.418579 6e-4,0.208133 0.005,0.387278 0.0098,0.397908 0.0175,0.03949 0.08243,0.0771 0.127641,0.0739 0.05977,-0.0042 0.09996,-0.02979 0.118856,-0.07545 0.0085,-0.02052 0.01492,-0.207702 0.01447,-0.415995 -9e-4,-0.372774 -0.0037,-0.39371 -0.05994,-0.43925 -0.01472,-0.01191 -0.03205,-0.01956 -0.05013,-0.02325 z m 6.575309,0.04703 v 0.130225 0.130225 l -0.478524,0.0072 -0.478524,0.0067 0.0021,-0.136942 0.0016,-0.136943 h 0.476973 z m -0.964282,0.520899 h 0.482141 0.481624 l 10e-4,0.129708 c 4e-4,0.07136 -0.0019,0.132092 -0.0052,0.135392 -0.0032,0.0033 -0.220884,0.0058 -0.483175,0.0057 H 32.18925 V 23.44198 Z m -4.74493,0.06356 -0.288872,0.289388 c -0.311345,0.311802 -0.310381,0.310757 -0.287321,0.390157 0.01739,0.0599 0.07888,0.0968 0.149345,0.0894 0.03245,-0.0035 0.06533,-0.03315 0.325045,-0.292489 l 0.289388,-0.288871 -5.17e-4,-0.05478 c 1.8e-5,-0.07716 -0.05514,-0.132829 -0.132291,-0.132808 z m -1.493449,0.288354 c -0.02632,-0.008 -0.174416,0.02415 -0.488343,0.105937 l -0.450618,0.117305 -0.206706,-0.206705 c -9.16e-4,0.12566 -0.0019,0.267792 -0.0026,0.401526 l 0.480591,0.48059 1.991093,1.991093 0.02325,0.06356 c 0.03342,0.09091 0.0347,0.197275 0.0036,0.288355 l -0.02687,0.07906 -1.21853,1.218013 -1.218014,1.218014 -0.04237,0.0155 v 0.293005 c 0.004,-0.0011 0.009,-8.62e-4 0.01292,-0.0021 0.162673,-0.04978 0.09775,0.01026 1.440222,-1.332218 1.340616,-1.340615 1.267843,-1.262386 1.321883,-1.427303 0.03172,-0.09685 0.03332,-0.284346 0.0036,-0.380856 -0.0457,-0.148417 -0.08126,-0.200684 -0.274402,-0.405143 l -0.177251,-0.188102 0.116272,-0.449585 c 0.08088,-0.312382 0.112804,-0.461039 0.104904,-0.487309 -0.01703,-0.05621 -1.33647,-1.37565 -1.39268,-1.39268 z m 6.411495,0.168465 h 0.309025 0.308508 l 5.17e-4,0.216525 c 2e-4,0.119131 -0.002,0.219008 -0.0052,0.222208 -0.0032,0.0032 -0.142675,0.0058 -0.309542,0.0057 l -0.30334,-5.17e-4 v -0.221692 z m -6.489527,0.112138 0.594796,0.595313 0.595313,0.594795 -0.08113,0.310576 c -0.0445,0.170751 -0.0834,0.312843 -0.0863,0.315743 -0.0031,0.0031 -0.377022,-0.365654 -0.830957,-0.819588 -0.526148,-0.526149 -0.82067,-0.827674 -0.81287,-0.831474 0.0067,-0.0033 0.148735,-0.04143 0.316259,-0.08527 z m 1.885673,0.374654 c -0.188426,0.0034 -0.373483,0.01125 -0.389123,0.02067 -0.04438,0.02675 -0.06836,0.09143 -0.05529,0.148311 0.02215,0.09646 0.04781,0.102135 0.465605,0.10232 0.412754,1.9e-4 0.448163,-0.006 0.476973,-0.08682 0.02634,-0.07383 -0.01521,-0.156983 -0.08837,-0.178283 -0.02957,-0.0086 -0.221367,-0.0096 -0.409794,-0.0062 z m 14.834237,0.347266 -0.01705,0.01705 -0.0016,0.04186 -10e-4,0.04186 0.02119,0.02119 c -4.27e-4,-0.03635 -0.0011,-0.08617 -0.0016,-0.121956 z m -17.58549,0.355017 c -0.07827,-0.0039 -0.15278,0.102754 -0.12454,0.178284 0.01786,0.04781 0.04405,0.07073 0.123507,0.106453 0.558093,0.250695 0.889582,0.854994 0.804602,1.467094 -0.06019,0.433526 -0.324005,0.818412 -0.70435,1.027844 -0.09989,0.055 -0.204263,0.09586 -0.310575,0.125057 v 0.276986 c 0.05163,-0.01156 0.104317,-0.01862 0.154512,-0.03514 0.254638,-0.08379 0.463607,-0.213635 0.661458,-0.411344 0.305795,-0.305592 0.472865,-0.693323 0.484725,-1.125513 0.01425,-0.519288 -0.195067,-0.989321 -0.591178,-1.328084 -0.160813,-0.137528 -0.407631,-0.277137 -0.498161,-0.281637 z m -0.210323,0.535885 c -9.9e-5,0.09075 7.1e-5,0.2056 0,0.299206 0.09728,0.04833 0.18554,0.113977 0.255282,0.198955 0.33508,0.408334 0.204986,1.011785 -0.255799,1.246952 -1.3e-5,0.108442 -4.99e-4,0.188645 -5.16e-4,0.30024 0.07077,-0.02554 0.140344,-0.05636 0.206705,-0.09715 0.138504,-0.08515 0.314799,-0.270736 0.383439,-0.403593 0.14845,-0.287318 0.170798,-0.593454 0.0646,-0.890901 -0.108708,-0.304469 -0.349332,-0.54481 -0.653707,-0.653707 z m 0,0.654223 c -1.1e-4,0.239034 -4.78e-4,0.479719 -5.17e-4,0.736906 0.02175,-0.01818 0.04325,-0.03855 0.06615,-0.07338 0.126889,-0.192961 0.117172,-0.450412 -0.02377,-0.623218 -0.01408,-0.01726 -0.02802,-0.02823 -0.04186,-0.04031 z m -3.720186,0.275952 c 0.209427,0.21137 0.446601,0.449746 0.69143,0.695565 -0.07737,-0.271447 -0.187403,-0.421436 -0.344165,-0.540535 -0.0989,-0.07514 -0.218419,-0.12625 -0.347265,-0.15503 z m 20.177063,0.413412 c -0.171985,0.0067 -0.34258,0.04817 -0.495577,0.123507 -0.140243,0.06909 -0.248861,0.153266 -0.372071,0.288354 -0.212738,0.233169 -0.311177,0.481861 -0.319877,0.80822 -0.0034,0.126882 -0.0057,0.135397 -0.02894,0.112137 -0.09447,-0.09446 -0.332994,-0.125011 -0.474389,-0.06046 l -0.07803,0.03566 -0.365869,0.367936 c 4.34e-4,0.105632 6.7e-5,0.146901 5.17e-4,0.255281 l 5.17e-4,0.143144 c 0.381656,-0.37928 0.547255,-0.538595 0.580326,-0.548287 0.02673,-0.0078 0.07041,-0.0078 0.09715,0 0.04595,0.01342 0.137347,0.102206 1.638659,1.60352 0.674196,0.674195 0.995481,0.996768 1.221115,1.225765 l -0.0041,-0.464054 c -0.258317,-0.16921 -0.442953,-0.402876 -0.541569,-0.698666 -0.188954,-0.566756 0.03714,-1.195916 0.521416,-1.522904 l -0.0031,-0.336414 -0.0894,0.04703 0.0031,-0.103353 c 0.0064,-0.218912 -0.04506,-0.437692 -0.148828,-0.63252 -0.05511,-0.103364 -0.07568,-0.128865 -0.216007,-0.270267 -0.171357,-0.172743 -0.231773,-0.214489 -0.420646,-0.289388 -0.159123,-0.06311 -0.332378,-0.09097 -0.504362,-0.08423 z m 0.05064,0.283704 c 0.529851,0 0.954462,0.424612 0.954463,0.954463 -1e-6,0.436669 -0.292309,0.815685 -0.713134,0.924492 -0.251865,0.06512 -0.525612,0.02489 -0.736906,-0.108004 -0.292849,-0.184181 -0.458371,-0.478773 -0.45837,-0.816488 -10e-7,-0.529851 0.424094,-0.954463 0.953947,-0.954463 z m 0.02119,0.320393 c -0.16379,-0.0059 -0.332473,0.05204 -0.466122,0.185002 -0.204783,0.203745 -0.247059,0.496685 -0.11007,0.761194 0.04285,0.08265 0.173767,0.207138 0.265617,0.252698 0.254592,0.126284 0.538163,0.08092 0.736905,-0.117823 0.154708,-0.154711 0.219817,-0.369899 0.174667,-0.575675 -0.06778,-0.308874 -0.328014,-0.495525 -0.600997,-0.505396 z m -0.0155,0.283187 c 0.03117,0.0011 0.06312,0.0068 0.09612,0.01654 0.112417,0.03318 0.199364,0.120127 0.232544,0.232544 0.03894,0.131983 0.0089,0.250522 -0.08837,0.347782 -0.09578,0.09578 -0.216348,0.12714 -0.341064,0.0894 -0.128141,-0.03876 -0.21068,-0.12444 -0.24443,-0.253731 -0.03146,-0.120526 0.0014,-0.234969 0.09405,-0.327629 0.07294,-0.07298 0.157623,-0.108322 0.251147,-0.104903 z m 1.326017,1.120862 c -0.0029,0.0029 -0.0064,0.0048 -0.0093,0.0078 -0.131057,0.131057 -0.203686,0.249839 -0.264066,0.431498 -0.09488,0.285468 -0.0579,0.611119 0.09974,0.880566 0.04228,0.07224 0.111946,0.153276 0.187586,0.225309 l -0.0047,-0.517797 c -0.02859,-0.08267 -0.04909,-0.169126 -0.04909,-0.261483 0,-0.08894 0.01795,-0.169316 0.04444,-0.250114 z m -0.830957,0.37207 c 0.0018,0.0017 -0.0028,0.02604 -0.0098,0.05374 -0.03791,0.148751 -0.04503,0.401689 -0.01654,0.595312 l 0.0078,0.05064 -0.300757,-0.30024 -0.301274,-0.30024 0.128675,-0.0026 c 0.146329,-0.003 0.299617,-0.02957 0.411861,-0.07131 0.04225,-0.01567 0.0783,-0.02712 0.0801,-0.02532 z m -2.598808,0.256316 -0.08371,0.0832 0.0015,0.38809 0.139009,-0.13901 0.748275,0.748275 0.748792,0.748791 -0.369487,0.369487 -0.369486,0.369486 -0.748792,-0.748791 -0.143143,-0.143144 0.0015,0.390157 0.833541,0.833541 h 0.05684 0.05684 l 0.506946,-0.506946 0.506945,-0.506946 v -0.05684 -0.05684 l -0.885734,-0.886251 -0.88625,-0.88625 h -0.05685 z m 8.02535,0.15968 c -0.06936,-0.0084 -0.145493,0.04628 -0.141593,0.124023 0.0015,0.0289 0.04841,0.125489 0.122473,0.252698 0.06599,0.113356 0.171521,0.295398 0.234611,0.404626 0.130239,0.225448 0.235751,0.343275 0.383956,0.428915 0.03226,0.01864 0.0663,0.03259 0.100252,0.04651 l -0.0052,-0.288355 c -0.02824,-0.02025 -0.05571,-0.04413 -0.08423,-0.07235 -0.07516,-0.07434 -0.11688,-0.137961 -0.300757,-0.45992 -0.117362,-0.205488 -0.227853,-0.387743 -0.245463,-0.405143 -0.0184,-0.01819 -0.04096,-0.02821 -0.06408,-0.03101 z m -26.762707,0.104386 c -0.05664,-5.16e-4 -0.103531,0.0021 -0.134876,0.0078 -0.07245,0.01314 -0.112102,0.05965 -0.101802,0.118339 0.01355,0.07695 0.04932,0.09003 0.253214,0.09353 0.2399,0.0041 0.386606,0.02062 0.609265,0.0677 0.287935,0.06088 0.574841,0.173103 0.84491,0.320911 v -0.0098 c 0,-0.08618 -8.87e-4,-0.15151 -0.001,-0.233577 -0.266525,-0.134316 -0.54833,-0.238075 -0.82734,-0.293522 -0.212107,-0.04217 -0.472423,-0.06977 -0.642338,-0.07131 z m -0.557072,0.05116 c -0.03323,-0.004 -0.153473,0.02272 -0.285771,0.05736 v 0.224275 c 0.05887,-0.017 0.128412,-0.04044 0.172083,-0.04961 0.1608,-0.03377 0.197988,-0.05707 0.199988,-0.125057 0.0015,-0.04809 -0.0415,-0.10157 -0.0863,-0.10697 z m 11.847339,0.497127 c 7e-5,0.11163 4.23e-4,0.213836 5.17e-4,0.323495 0.178735,0.09378 0.407672,0.212335 0.424263,0.228926 0.0061,0.0061 0.01687,0.307018 0.02377,0.668693 0.0085,0.447701 0.0058,0.65564 -0.0072,0.65164 -0.01058,-0.0032 -0.146744,-0.07628 -0.302823,-0.162781 -0.07158,-0.03967 -0.08457,-0.04665 -0.136943,-0.07545 1.84e-4,0.09861 3.11e-4,0.219307 5.17e-4,0.315743 l 1.069702,0.590144 c 1.103546,0.608403 1.978282,1.083223 2.005562,1.088823 0.02661,0.0054 0.06573,0.0035 0.08733,-0.0041 0.03627,-0.01272 0.05657,-0.04417 0.256316,-0.40411 0.257711,-0.46441 0.289321,-0.544039 0.290421,-0.731221 0.0014,-0.22432 -0.07733,-0.402403 -0.244946,-0.553455 -0.08004,-0.07213 -0.259235,-0.173729 -1.927014,-1.091923 -0.797492,-0.439056 -1.242298,-0.682265 -1.539441,-0.844393 z m -11.739852,0.05788 c -0.09879,0.0051 -0.197611,0.01556 -0.296106,0.03152 -0.0253,0.0041 -0.06667,0.01885 -0.09715,0.02584 v 0.211357 c 0.150404,-0.0346 0.308355,-0.05374 0.476457,-0.05736 0.595749,-0.01283 1.157747,0.173217 1.691886,0.560173 0.0436,0.03157 0.09343,0.07343 0.145211,0.119372 V 31.018262 C 21.362614,30.582576 20.691536,30.36727 20.01945,30.402279 Z M 32.4817,31.068372 c 0.0084,-0.0088 0.608428,0.316857 0.621668,0.337447 0.01524,0.02354 0.03302,1.316991 0.01809,1.316199 -0.008,-4.45e-4 -0.143093,-0.07175 -0.300241,-0.158647 -0.157146,-0.08691 -0.29354,-0.163182 -0.30334,-0.168982 -0.01721,-0.01013 -0.05264,-1.308937 -0.03617,-1.326017 z m 9.444385,0.175183 c -0.06822,2.19e-4 -0.13699,0.01254 -0.190169,0.03669 -0.106822,0.04851 -0.216071,0.165652 -0.252181,0.270268 -0.03441,0.0998 -0.03036,0.258222 0.0088,0.346232 0.02083,0.04684 0.05548,0.09571 0.101286,0.14211 0.09934,0.100785 0.194175,0.14056 0.332796,0.14056 0.189145,1e-6 0.353218,-0.106859 0.433048,-0.282153 0.04804,-0.105475 0.04804,-0.266599 0,-0.37207 -0.0469,-0.102974 -0.14301,-0.19955 -0.244946,-0.24598 -0.05228,-0.02382 -0.120402,-0.03588 -0.188619,-0.03566 z m -0.02842,0.285771 c 0.140646,-0.02421 0.268752,0.131464 0.189136,0.271818 -0.04062,0.07159 -0.132138,0.11334 -0.199988,0.09095 -0.06659,-0.022 -0.09857,-0.04848 -0.125057,-0.103353 -0.04315,-0.08936 -0.01181,-0.187695 0.07545,-0.237195 0.02004,-0.01137 0.04037,-0.01876 0.06046,-0.02222 z m -8.491471,0.03979 c 0.0093,0.0027 0.153224,0.0798 0.319877,0.171566 l 0.30334,0.166915 0.0016,0.179834 c 10e-4,0.09882 0.0063,0.39796 0.01137,0.665076 0.0051,0.26711 0.0023,0.482624 -0.0062,0.478524 -0.0085,-0.0041 -0.148425,-0.08079 -0.311092,-0.170533 -0.162674,-0.08973 -0.298807,-0.166215 -0.302307,-0.170015 -0.01549,-0.01685 -0.03186,-1.325767 -0.01654,-1.321367 z m 7.530289,0.47129 -0.273368,0.273885 -0.273885,0.273368 v 0.05684 0.05684 l 0.273885,0.273885 0.273368,0.273885 h 0.05684 0.05684 l 0.273885,-0.273885 0.273885,-0.273885 v -0.05684 -0.05684 l -0.273885,-0.273368 -0.273885,-0.273885 h -0.05684 z m -6.628019,0.02429 c 0.0084,-0.0013 0.613168,0.334838 0.675928,0.375688 0.166755,0.10854 0.244951,0.298787 0.202572,0.492993 -0.01863,0.08534 -0.357196,0.715039 -0.383956,0.714169 -0.0088,-2.84e-4 -0.114492,-0.05535 -0.234611,-0.122474 -0.120126,-0.0671 -0.222477,-0.126674 -0.227377,-0.131774 -0.0077,-0.008 -0.03996,-1.327402 -0.03256,-1.328602 z m 8.357113,0.100253 c -0.150063,0.152151 -0.291617,0.295234 -0.646472,0.650089 -0.943642,0.943643 -1.009126,1.006723 -1.054716,1.020093 -0.104672,0.03068 -0.07873,0.05212 -0.751892,-0.610299 l -0.606165,-0.596346 -0.05064,0.0036 c -0.07447,0.0056 -0.128674,0.06442 -0.128674,0.139009 v 0.05684 l 0.612882,0.612883 c 0.600153,0.600157 0.61437,0.613329 0.68833,0.646989 0.103277,0.04704 0.271891,0.04704 0.375171,0 0.0641,-0.02919 0.09666,-0.05532 0.216008,-0.174667 l 0.14056,-0.140559 0.09663,0.09612 c 0.09036,0.09036 0.09615,0.09887 0.09095,0.137459 -0.0052,0.03894 0.221809,0.948597 0.260449,1.043347 0.01,0.02443 0.0457,0.07206 0.07958,0.105937 0.10421,0.10421 0.24291,0.133462 0.382922,0.08113 0.03078,-0.01149 0.120204,-0.09322 0.319877,-0.288871 l -0.0031,-0.380339 -0.401526,0.401526 h -0.04806 c -0.02622,0 -0.05099,-0.0035 -0.05529,-0.0078 -0.01127,-0.01127 -0.03134,-0.08368 -0.14211,-0.511597 l -0.0987,-0.380339 0.666109,-0.666109 0.06821,-0.06821 -0.0036,-0.386023 -0.259416,0.259416 -0.56379,0.564307 -0.09715,-0.09767 -0.09715,-0.09715 0.56379,-0.563789 0.450618,-0.450619 z m -3.515548,0.03152 c -0.0056,-10e-4 -0.01088,0.0019 -0.01654,0.0016 l 0.001,0.269234 c 0.06742,-0.0038 0.129713,-0.0526 0.129708,-0.133842 -1e-5,-0.04456 -0.0086,-0.06548 -0.04031,-0.09715 -0.02214,-0.02214 -0.04773,-0.03497 -0.0739,-0.03979 z m -20.167244,0.147795 -0.210323,0.118856 c 0.03475,0.02162 0.06984,0.04348 0.08475,0.05839 0.09698,0.09696 0.137987,0.229069 0.107487,0.345715 -0.01758,0.06733 -0.860168,1.816686 -0.921908,1.914096 -0.06759,0.106626 -0.224296,0.175246 -0.359151,0.157096 -0.06657,-0.009 -0.379871,-0.152336 -0.378271,-0.173116 5.24e-4,-0.0068 0.220497,-0.46393 0.488859,-1.015959 0.289345,-0.595176 0.422802,-0.86929 0.487825,-1.008724 l -0.291455,0.165365 c -0.0078,0.0044 -0.01495,0.009 -0.02274,0.01344 -0.09739,0.194214 -0.158383,0.310831 -0.33383,0.672827 -0.278775,0.575183 -0.50963,1.048098 -0.51263,1.051098 -0.01267,0.01267 -0.05295,-0.05112 -0.162264,-0.257348 -0.119927,-0.226265 -0.136707,-0.271333 -0.123507,-0.330213 0.0033,-0.01462 0.159409,-0.3397 0.303341,-0.639237 -0.190898,0.120003 -0.360825,0.230937 -0.512114,0.334863 0.01647,0.01351 0.03238,0.02797 0.05064,0.03617 0.02536,0.01139 0.03257,0.01974 0.02687,0.03152 -0.08406,0.173427 -0.103103,0.283622 -0.06821,0.391191 0.015,0.04626 0.202704,0.409101 0.270784,0.523482 0.0077,0.01308 0.04277,0.05298 0.07752,0.08888 0.05422,0.05614 0.09564,0.08145 0.293522,0.178283 0.365102,0.178655 0.442275,0.192479 0.655257,0.118339 0.103598,-0.03607 0.110392,-0.04082 0.21239,-0.14366 l 0.10542,-0.105937 0.444418,-0.921907 c 0.244419,-0.50694 0.453137,-0.948182 0.463537,-0.980302 0.0487,-0.149887 0.03314,-0.317342 -0.04186,-0.457853 -0.03571,-0.06686 -0.07432,-0.116971 -0.134358,-0.165365 z m 22.010542,0.02842 0.136426,0.135909 0.135909,0.135909 -0.135909,0.136426 -0.136426,0.135909 -0.135909,-0.135909 -0.135909,-0.136426 0.135909,-0.135909 z m -9.231994,0.325562 c 4.14e-4,0.166197 5.51e-4,0.340866 0.001,0.499711 l 0.07648,-0.02067 0.257866,0.257349 0.257865,0.257348 -0.06356,0.01705 c -0.03394,0.009 -0.271311,0.07218 -0.525032,0.140043 4.36e-4,0.107392 0.0011,0.183332 0.0015,0.286287 0.104638,-0.02808 0.188441,-0.05069 0.350883,-0.09405 l 0.454753,-0.12144 0.259415,0.254765 c 0.142745,0.140058 0.254764,0.256616 0.248564,0.259416 -0.0062,0.0027 -0.250166,0.06929 -0.541569,0.147794 l 5.17e-4,-5.16e-4 -0.530201,0.143143 -0.240295,-0.239778 c 7.18e-4,0.135855 0.0013,0.272851 0.0021,0.399459 l 1.083138,1.083138 -0.684713,0.679545 -0.375687,0.373104 c 0.0037,0.130661 0.0072,0.25581 0.01137,0.279052 0.0047,0.02605 0.01186,0.05292 0.01912,0.07958 0.147145,-0.138547 0.39853,-0.385278 1.065051,-1.051615 1.262298,-1.261943 1.20418,-1.198652 1.18184,-1.280542 -0.0072,-0.02647 -0.332579,-0.358674 -1.60352,-1.63711 z m -3.432866,0.03566 c -0.496095,0.498184 -0.723526,0.731345 -0.749825,0.77618 -0.12928,0.220341 -0.132361,0.519037 -0.0078,0.744141 0.03636,0.06558 0.103032,0.136351 0.668176,0.702799 l 0.08837,0.08837 v -0.382922 c -0.409752,-0.414628 -0.509662,-0.51993 -0.530717,-0.567924 -0.05591,-0.12732 -0.05522,-0.280974 0.0016,-0.412895 0.01864,-0.04336 0.137981,-0.168034 0.5302,-0.564823 z m 21.998141,0.629936 c 0.0074,0.205087 0.01873,0.222721 0.04031,0.243913 0.03958,0.0388 0.05808,0.04347 0.1757,0.04237 l 0.131775,-0.001 0.0026,0.598413 c 0.0021,0.460824 0.0094,0.620254 0.03256,0.692464 0.03044,0.09489 0.224592,0.419021 0.288871,0.482141 0.04406,0.04321 0.121785,0.04535 0.162264,0.0041 0.04683,-0.04768 0.252933,-0.406544 0.277503,-0.483174 0.01303,-0.04076 0.01987,-0.310821 0.01757,-0.683679 l -5.17e-4,-0.05064 c -0.08832,-0.0959 -0.199348,-0.19662 -0.334346,-0.303341 l -0.05426,5.17e-4 -0.133325,10e-4 -10e-4,-0.130224 v -0.01395 C 50.763629,33.64099 50.557035,33.506938 50.326665,33.36381 Z m 0.738456,0.802018 h 0.129708 l 0.0021,0.129708 0.0016,0.129191 -0.130224,0.0016 -0.130225,0.001 -10e-4,-0.130225 -0.0016,-0.130741 z m -17.745687,0.491443 0.211357,0.21084 0.21084,0.21084 -0.344682,0.344682 -0.344682,0.344681 -0.409277,-0.409794 -0.409794,-0.409794 0.543119,-0.145727 z m 17.879529,0.02894 0.0021,0.06563 c 0.0012,0.03614 -0.0059,0.09152 -0.01602,0.12299 -0.02141,0.06681 -0.09157,0.189499 -0.10852,0.189652 -0.01592,1.44e-4 -0.106927,-0.141953 -0.123507,-0.192753 -0.0074,-0.02258 -0.01278,-0.0737 -0.0124,-0.113171 l 5.17e-4,-0.07131 0.128674,-5.16e-4 z m -8.464083,2.650484 c -0.05664,-5.16e-4 -0.103014,0.0016 -0.134359,0.0072 -0.07245,0.01314 -0.112619,0.05965 -0.102319,0.118339 0.01355,0.07695 0.04984,0.09055 0.253731,0.09405 0.2399,0.0041 0.386089,0.0201 0.608749,0.06718 0.429049,0.09072 0.859869,0.287557 1.228349,0.561723 0.154849,0.115193 0.447952,0.402833 0.558622,0.548287 0.29517,0.387999 0.507712,0.845448 0.595312,1.281059 0.07262,0.360923 0.0757,0.721247 0.02687,1.070219 0.07603,0.04396 0.120673,0.06977 0.198438,0.114721 0.05144,-0.304358 0.0674,-0.615365 0.03514,-0.906404 -0.06171,-0.557079 -0.271841,-1.108278 -0.600481,-1.574064 -0.121949,-0.172913 -0.433791,-0.503974 -0.605131,-0.642338 -0.404959,-0.326997 -0.919788,-0.569274 -1.420068,-0.668693 -0.212107,-0.04217 -0.472939,-0.06977 -0.642855,-0.07131 z m -0.557072,0.05116 c -0.04878,-0.0059 -0.273912,0.04563 -0.470772,0.108004 -0.416467,0.131949 -0.771291,0.323909 -1.101742,0.60048 0.06534,0.03785 0.129073,0.07504 0.198438,0.115238 0.178043,-0.140697 0.36368,-0.259785 0.565857,-0.357601 0.15828,-0.07658 0.514308,-0.196681 0.695048,-0.234611 0.1608,-0.03377 0.197988,-0.05707 0.199988,-0.125057 0.0015,-0.04809 -0.04202,-0.101053 -0.08682,-0.106453 z m -16.15767,0.249597 c -0.06682,0.0012 -0.465678,0.112442 -0.536918,0.149862 -0.0379,0.01991 -0.23218,0.20743 -0.49196,0.474906 l -0.428914,0.441833 -0.09612,-0.0894 c -0.0833,-0.07784 -0.103859,-0.08926 -0.155029,-0.08837 -0.0576,0.001 -0.08502,0.02783 -1.237651,1.22163 -0.82244,0.851802 -1.072421,1.112638 -1.1467,1.211296 0.286445,-0.165146 0.454074,-0.261414 0.760677,-0.438216 l 0.06511,-0.06511 0.01809,0.01757 c 0.09692,-0.05589 0.139785,-0.08039 0.238745,-0.13746 -0.01055,-0.01093 -0.06416,-0.06284 -0.0646,-0.06408 -0.0023,-0.0066 0.306143,-0.332981 0.685229,-0.725537 l 0.689364,-0.713651 0.343131,0.331246 0.141594,0.137459 0.599446,-0.345715 0.135393,-0.13901 c 0.321588,-0.330066 0.427897,-0.449034 0.461987,-0.516764 0.04482,-0.08901 0.133375,-0.45615 0.131775,-0.54622 -0.0011,-0.06173 -0.05489,-0.117272 -0.112655,-0.116272 z m 16.265674,0.304891 c -0.09879,0.0051 -0.197611,0.01557 -0.296106,0.03152 -0.189,0.03062 -0.547924,0.150383 -0.692464,0.230993 -0.08073,0.04503 -0.159946,0.09787 -0.238228,0.154513 0.07502,0.0435 0.129063,0.07472 0.205155,0.118855 0.327747,-0.211375 0.685419,-0.314977 1.104842,-0.324011 0.595749,-0.01283 1.15723,0.173217 1.69137,0.560173 0.18495,0.133936 0.473023,0.427111 0.614432,0.625285 0.315222,0.441771 0.491047,0.917218 0.526067,1.416451 0.07793,0.04506 0.139149,0.08059 0.219624,0.127124 -0.0098,-0.626466 -0.237223,-1.247961 -0.653706,-1.778703 -0.09804,-0.124942 -0.385107,-0.412007 -0.510047,-0.510047 -0.588096,-0.461485 -1.279426,-0.688177 -1.970939,-0.652156 z m -16.45946,0.01189 c 0.01145,0.01106 -0.02325,0.175899 -0.04703,0.223759 -0.01056,0.02129 -0.04179,0.06156 -0.06976,0.0894 l -0.05116,0.05064 -0.09198,-0.08992 -0.0925,-0.08992 0.04444,-0.04858 c 0.02444,-0.02665 0.06842,-0.06111 0.09767,-0.07648 0.06211,-0.03262 0.198124,-0.07069 0.210324,-0.05891 z m -0.535368,0.370004 0.09405,0.09095 0.09353,0.09043 -0.09043,0.09353 -0.09043,0.09405 -0.09302,-0.09043 -0.0925,-0.09095 0.0894,-0.09353 z m -0.366386,0.370003 0.09663,0.09302 0.09612,0.09302 -0.09095,0.09353 -0.09043,0.09354 -0.09767,-0.09508 -0.09767,-0.09508 0.09198,-0.09147 z m 25.27546,0.858862 c -0.05086,0.05087 -0.03997,0.03945 -0.0956,0.09509 -1.343062,1.343064 -1.283128,1.278396 -1.332218,1.440739 -0.04904,0.16219 -0.0192,0.395491 0.06925,0.540535 0.0322,0.05267 1.633855,1.662403 2.821017,2.845305 0.32754,0.184591 0.625569,0.35096 0.884183,0.492993 l -1.482596,-1.48208 -1.992644,-1.99316 -0.02842,-0.08578 c -0.03283,-0.09841 -0.03098,-0.164643 0.0078,-0.272335 l 0.02739,-0.07596 1.218014,-1.218014 0.147278,-0.147278 c -0.09522,-0.05487 -0.150812,-0.08669 -0.243396,-0.140043 z m -33.54834,0.364319 c -0.06019,0.03484 -0.109561,0.06351 -0.169499,0.09819 0.498428,0.501767 0.725822,0.736082 0.734839,0.763778 0.03201,0.0986 0.02169,0.117017 -0.170532,0.315743 l -0.172083,0.177767 -0.941028,-0.940511 c -0.06474,0.03741 -0.123558,0.07103 -0.187585,0.108004 l 0.979785,0.979785 -1.442806,1.442289 c -1.003006,1.003006 -1.445174,1.451061 -1.451074,1.470711 -0.0047,0.01553 -0.0029,0.04113 0.0036,0.05684 0.01632,0.03926 0.05992,0.06603 0.10232,0.06253 0.03362,-0.0028 0.125994,-0.09356 1.749247,-1.721342 1.682665,-1.687374 1.713477,-1.719149 1.731677,-1.773019 0.0236,-0.07007 0.0236,-0.171259 0,-0.241328 -0.01133,-0.03366 -0.236527,-0.265755 -0.766878,-0.799435 z m 13.657564,0.351917 c -0.0077,4.7e-5 -0.01362,4.65e-4 -0.02119,5.16e-4 l -0.399459,0.399459 -0.0041,0.05219 c -0.0025,0.02857 0.0031,0.06295 0.0124,0.07648 0.02993,0.04323 0.07057,0.06309 0.125057,0.06149 l 0.05323,-0.0016 0.578259,-0.578259 c -0.104692,-0.0064 -0.214328,-0.01113 -0.344165,-0.01034 z m 0.679545,0.04961 -0.456303,0.456303 v 0.05478 c 3e-5,0.04292 0.0082,0.06353 0.03876,0.09405 0.03052,0.03051 0.05058,0.03876 0.09353,0.03876 h 0.05478 l 0.496094,-0.496093 0.05943,-0.05943 c -0.08542,-0.03846 -0.179733,-0.0669 -0.286288,-0.08837 z m 0.520382,0.229443 -0.187069,0.187586 c -0.725997,0.726625 -0.691672,0.686532 -0.665592,0.769462 0.0072,0.02279 0.01819,0.04651 0.02429,0.05271 0.02168,0.02193 0.07519,0.03964 0.115238,0.03824 0.04055,-0.0014 0.04341,-0.0041 0.712101,-0.672827 l 0.199471,-0.199471 c -0.06158,-0.06245 -0.126956,-0.121934 -0.198437,-0.1757 z m 7.358724,0.143144 c -0.05867,0.139099 -0.100474,0.252397 -0.104387,0.302824 -0.01029,0.132589 0.0721,0.284703 0.180351,0.333313 0.02536,0.01139 0.03257,0.01974 0.02687,0.03152 -0.08406,0.173426 -0.10362,0.283621 -0.06873,0.39119 0.01501,0.04626 0.202705,0.409102 0.270785,0.523482 h 5.16e-4 c 0.0077,0.01308 0.04225,0.0535 0.077,0.0894 0.05422,0.05614 0.09564,0.08094 0.293523,0.177767 0.365101,0.178654 0.442274,0.192995 0.655257,0.118855 0.103598,-0.03607 0.110908,-0.04082 0.212907,-0.14366 l 0.104903,-0.106454 0.291455,-0.604614 c -0.03055,-0.01763 -0.161218,-0.09285 -0.190169,-0.109554 -0.128958,0.26433 -0.289058,0.594815 -0.309026,0.626319 -0.06758,0.106626 -0.224296,0.174729 -0.359151,0.156579 -0.06657,-0.009 -0.379871,-0.151819 -0.378271,-0.172599 4.9e-4,-0.0064 0.212805,-0.447285 0.457336,-0.950847 -0.02327,-0.01342 -0.163881,-0.09501 -0.185518,-0.107487 -0.236887,0.488248 -0.453115,0.933706 -0.455786,0.936377 -0.01267,0.01267 -0.05295,-0.05163 -0.162264,-0.257865 -0.119927,-0.226265 -0.136707,-0.271332 -0.123507,-0.330212 0.0031,-0.01395 0.155122,-0.331025 0.288871,-0.609782 -0.0013,-7.66e-4 -0.01263,-0.0075 -0.01395,-0.0083 -0.07329,-0.04222 -0.109479,-0.06077 -0.1757,-0.0987 -0.03728,0.07569 -0.120718,0.248824 -0.123507,0.252697 -0.02266,0.03147 -0.09789,-0.04502 -0.101286,-0.102836 -0.0017,-0.02947 0.03032,-0.11819 0.07803,-0.232544 -0.06454,-0.03665 -0.128726,-0.07265 -0.186552,-0.104903 z m -23.571688,0.163298 c -0.05776,-0.0053 -0.102987,0.03393 -0.107487,0.09302 l -0.0041,0.04961 0.313676,0.322977 c 0.338799,0.348779 0.332488,0.33993 0.306958,0.42013 -0.01012,0.03181 -0.07736,0.103709 -0.369487,0.395841 -0.32009,0.320094 -0.361915,0.358653 -0.399975,0.368453 -0.08216,0.02114 -0.16909,-0.06267 -1.117245,-1.010791 -0.08447,0.04851 -0.107302,0.06078 -0.186035,0.105937 l 1.070219,1.067635 0.07855,0.02687 c 0.08377,0.02859 0.148243,0.02852 0.242363,0 0.05713,-0.01725 0.06702,-0.02626 0.443383,-0.397392 0.44827,-0.441984 0.448035,-0.441435 0.448035,-0.599447 4.3e-5,-0.153206 -0.0076,-0.164183 -0.371553,-0.528133 -0.283164,-0.283161 -0.314856,-0.311709 -0.347266,-0.314709 z m 16.583484,0.07183 -0.101803,0.102319 -0.261999,0.261483 v 0.05478 c 3e-5,0.04292 0.0082,0.06353 0.03876,0.09405 0.03051,0.03051 0.0511,0.03876 0.09405,0.03876 h 0.05478 l 0.260966,-0.261482 c 0.03375,-0.03376 0.03485,-0.03575 0.06046,-0.0615 -0.04276,-0.07955 -0.0915,-0.155373 -0.145211,-0.22841 z m -17.023767,0.0279 c -0.146793,0.08459 -0.326921,0.188683 -0.465088,0.268201 0.01567,0.0089 0.02879,0.0084 0.05478,0.0062 0.02943,-0.0025 0.05946,-0.01037 0.06666,-0.01757 0.0396,-0.03961 0.01661,0.01998 -0.06873,0.17725 -0.05461,0.100629 -0.09667,0.193864 -0.09767,0.216524 -0.002,0.04454 0.03973,0.09519 0.0832,0.101286 0.02271,0.0032 0.258774,-0.07502 0.353984,-0.117305 l 0.02894,-0.01292 v 0.03721 c 4.2e-5,0.03495 0.01193,0.04914 0.189652,0.226859 0.176344,0.176337 0.191856,0.189653 0.225826,0.189653 0.0809,2e-6 0.129642,-0.07233 0.09715,-0.144694 -0.0079,-0.01765 -0.07814,-0.09571 -0.155546,-0.173116 l -0.14056,-0.14056 0.02584,-0.07493 c 0.03079,-0.09007 0.02351,-0.142856 -0.02377,-0.173116 -0.04381,-0.02803 -0.05116,-0.02672 -0.221175,0.03669 l -0.144694,0.05426 0.03049,-0.05943 c 0.0167,-0.03247 0.0639,-0.122061 0.104903,-0.199471 0.04101,-0.07742 0.07345,-0.150997 0.07235,-0.163297 -7.91e-4,-0.0084 -0.0094,-0.02369 -0.01654,-0.03772 z m 37.644214,0.12144 c -0.06235,1e-6 -0.243383,0.0888 -0.387574,0.190169 -0.120863,0.08498 -0.301147,0.264981 -0.393257,0.392741 -0.418573,0.580639 -0.411269,1.383564 0.01809,1.974556 0.02467,0.03393 0.113411,0.127856 0.197921,0.208256 0.15998,0.152754 0.290811,0.243027 0.457853,0.316777 0.378293,0.167009 0.820013,0.189052 1.210779,0.06046 0.254638,-0.08379 0.463607,-0.213634 0.661459,-0.411344 0.305794,-0.305592 0.472348,-0.693323 0.484208,-1.125513 0.0048,-0.175005 -0.01747,-0.343708 -0.06201,-0.504362 -0.119917,-0.07547 -0.261984,-0.161769 -0.399459,-0.245463 0.151427,0.263989 0.219497,0.57647 0.1757,0.891935 -0.06019,0.433526 -0.324004,0.818412 -0.70435,1.027845 -0.436075,0.240119 -0.950703,0.234269 -1.393713,-0.01602 -0.0786,-0.04441 -0.116857,-0.07706 -0.2651,-0.225309 -0.148246,-0.148243 -0.180899,-0.1865 -0.225309,-0.2651 -0.295128,-0.522371 -0.247247,-1.137728 0.12454,-1.601453 0.126698,-0.15803 0.341498,-0.322041 0.513663,-0.392741 0.09427,-0.0387 0.134435,-0.101823 0.111105,-0.175183 -0.02075,-0.06522 -0.06413,-0.100252 -0.12454,-0.100252 z m 0.453719,0.06718 c 0.0057,0.01584 0.01489,0.02988 0.03152,0.04651 0.03193,0.03193 0.0708,0.03865 0.108004,0.03462 -0.04441,-0.02586 -0.0939,-0.05463 -0.139526,-0.08113 z M 32.15411,41.448116 c -0.129435,0.129098 -0.105238,0.100103 -0.283187,0.279053 l -0.925008,0.930176 -0.05633,0.108003 c -0.1011,0.193488 -0.148995,0.369243 -0.153995,0.568958 -0.0067,0.270147 0.07098,0.529401 0.214974,0.741557 0.05539,-0.03371 0.189042,-0.111007 0.235127,-0.139527 -0.185813,-0.279073 -0.22882,-0.605068 -0.114721,-0.908471 0.06692,-0.177934 0.08694,-0.203181 0.49351,-0.619084 l 0.372587,-0.381372 0.325561,0.325561 c 0.01204,-0.130738 0.01177,-0.262344 0,-0.393257 l -0.128157,-0.128675 0.09663,-0.09457 c -0.01922,-0.09789 -0.04425,-0.194262 -0.077,-0.288355 z m 20.846272,0.09663 c -0.149549,0.01081 -0.297656,0.05342 -0.441316,0.127641 -0.131308,0.06784 -0.318586,0.245311 -0.401526,0.380338 -0.224729,0.365869 -0.22024,0.809706 0.01188,1.180807 0.02867,0.04594 0.08507,0.108805 0.167949,0.187585 0.110218,0.10473 0.138899,0.125697 0.243913,0.177767 0.352914,0.17497 0.745903,0.159503 1.074353,-0.04237 0.138504,-0.08515 0.314799,-0.270736 0.383439,-0.403592 0.14845,-0.287319 0.170797,-0.592938 0.06459,-0.890385 -0.108786,-0.304688 -0.349537,-0.545438 -0.654223,-0.654224 -0.148725,-0.0531 -0.299519,-0.07437 -0.449069,-0.06356 z m -39.437902,0.24443 c -0.04943,-0.0054 -0.101799,0.0029 -0.152963,0.02842 -0.02612,0.013 -0.119097,0.09784 -0.246496,0.224792 l -0.204639,0.204122 -0.04754,-0.01033 c -0.09018,-0.01983 -0.12924,-0.0054 -0.22686,0.08527 -0.108165,0.100453 -0.132582,0.151202 -0.116272,0.240812 l 0.01137,0.06304 -0.296106,0.29714 c -0.196105,0.196556 -0.303503,0.311207 -0.317293,0.338997 -0.04248,0.08534 -0.03998,0.173557 0.0078,0.267167 0.04411,0.08651 0.178762,0.14406 0.290422,0.12454 l 0.06821,-0.01188 0.318843,-0.312643 0.318327,-0.312642 0.04754,0.0098 c 0.09601,0.02058 0.126853,0.007 0.237711,-0.10387 0.11081,-0.110805 0.124796,-0.141692 0.104387,-0.237712 l -0.01034,-0.04702 0.220142,-0.22686 0.220658,-0.226343 0.01189,-0.06821 c 0.0298,-0.17061 -0.09047,-0.310412 -0.238745,-0.326595 z m 39.490612,0.02997 c 0.248357,-0.0079 0.49542,0.09571 0.652674,0.287321 0.343451,0.418536 0.200922,1.044913 -0.288355,1.266589 -0.233921,0.105987 -0.530748,0.09012 -0.752409,-0.04031 -0.09647,-0.05654 -0.242765,-0.206227 -0.294555,-0.300757 -0.07237,-0.132008 -0.100002,-0.245388 -0.0987,-0.407211 0.0018,-0.231027 0.07263,-0.406265 0.227376,-0.562239 0.100874,-0.10167 0.179186,-0.151604 0.308508,-0.197404 0.07989,-0.0283 0.162678,-0.04336 0.245463,-0.04599 z m -39.501464,0.173116 c 0.01118,0.0015 0.02029,0.0084 0.03101,0.01912 0.04282,0.04282 0.02975,0.06275 -0.180867,0.273368 l -0.197921,0.197921 -0.04651,-0.04599 -0.04599,-0.04599 0.197921,-0.198437 c 0.157964,-0.15797 0.208825,-0.204504 0.242363,-0.199988 z m 17.224271,0.04909 c -0.04438,0 -0.05425,0.0062 -0.129191,0.08113 -0.269888,0.269888 -0.469073,0.721167 -0.491443,1.114144 -0.01469,0.258029 0.01569,0.49628 0.0925,0.727605 0.03782,0.113876 0.115747,0.281706 0.161747,0.348815 l 0.02842,0.04186 -0.06408,0.06408 c 0.109281,-0.06484 0.223121,-0.132093 0.312125,-0.185518 -0.268311,-0.402974 -0.333295,-0.9022 -0.172082,-1.370459 0.06519,-0.189365 0.150286,-0.337653 0.28577,-0.499711 0.111321,-0.133102 0.127383,-0.171576 0.103353,-0.241846 -0.01673,-0.04888 -0.06604,-0.0801 -0.127124,-0.0801 z m 22.597587,0.177251 c -0.0383,-0.0069 -0.07526,0.0076 -0.111104,0.04341 -0.05227,0.05227 -0.05,0.126775 0.0067,0.205155 0.08423,0.116334 0.08423,0.215429 0,0.331763 -0.03571,0.04939 -0.04499,0.07491 -0.04289,0.117305 0.0038,0.071 0.0479,0.116274 0.119373,0.122474 0.06549,0.0056 0.113196,-0.02572 0.170016,-0.112138 0.126888,-0.192961 0.117171,-0.450929 -0.02377,-0.623735 -0.04037,-0.04951 -0.08003,-0.07737 -0.118339,-0.08423 z m -11.51971,0.191202 -0.901754,0.435116 -0.106453,0.10542 c -0.09999,0.09907 -0.10854,0.110855 -0.14056,0.200504 -0.03864,0.108191 -0.04823,0.254647 -0.02325,0.350367 0.0093,0.03567 0.06994,0.174599 0.134875,0.308508 0.115156,0.237433 0.119871,0.245193 0.199471,0.315743 0.09433,0.08369 0.499639,0.307417 0.608748,0.335897 0.11485,0.02998 0.204479,0.01293 0.377238,-0.0708 0.0118,-0.0057 0.02012,0.0015 0.03152,0.02687 0.04852,0.108045 0.200766,0.190601 0.332796,0.180351 0.16944,-0.01315 0.99275,-0.40829 1.528589,-0.733806 0.07985,-0.04851 0.15071,-0.09582 0.224793,-0.14366 -0.06002,-0.03468 -0.151192,-0.08757 -0.209807,-0.12144 -0.402462,0.253797 -0.849015,0.492965 -1.329118,0.701249 -0.225399,0.09779 -0.271429,0.104299 -0.330729,0.04496 -0.0206,-0.02056 -0.03662,-0.04269 -0.03462,-0.04909 0.0016,-0.0063 0.216047,-0.11433 0.476457,-0.240295 0.853859,-0.413095 0.828534,-0.400167 0.888834,-0.460437 0.0306,-0.03063 0.06962,-0.08354 0.08682,-0.117822 0.0031,-0.0062 0.0066,-0.0083 0.0093,-0.01344 -0.05445,-0.03146 -0.147407,-0.08508 -0.200505,-0.115756 -0.0085,0.0288 -0.01771,0.0656 -0.02377,0.0739 -0.02767,0.03787 -0.143707,0.09767 -0.842326,0.436666 -0.44546,0.216148 -0.82551,0.396709 -0.84491,0.401009 -0.05948,0.01322 -0.104324,-0.0043 -0.337964,-0.129708 -0.216929,-0.116489 -0.262013,-0.14465 -0.250113,-0.15658 0.003,-0.003 0.106156,-0.05392 0.228926,-0.113171 0.12277,-0.05925 0.232846,-0.117648 0.244946,-0.129708 0.0292,-0.02913 0.02793,-0.110073 -0.0021,-0.140043 -0.04844,-0.04844 -0.104315,-0.03543 -0.342614,0.08062 -0.12459,0.06066 -0.232846,0.113822 -0.241846,0.117822 -0.02268,0.01076 -0.166761,-0.283929 -0.180351,-0.368969 -0.02201,-0.13769 0.04554,-0.29834 0.154513,-0.36742 0.05113,-0.03241 0.551027,-0.27582 1.041797,-0.511596 -0.04851,-0.02802 -0.18039,-0.104422 -0.22686,-0.131259 z m -28.992029,0.02687 0.147795,0.147795 0.148311,0.147794 -0.04651,0.04651 -0.04599,0.04599 -0.148311,-0.147794 -0.147795,-0.147795 0.04651,-0.04651 z m 1.374077,0.0801 c -0.02553,0.0025 -0.05123,0.0091 -0.077,0.01964 -0.04154,0.01703 -0.112521,0.0841 -0.490926,0.462504 l -0.442351,0.44235 -0.05736,-0.0124 c -0.08503,-0.01837 -0.138624,0.0048 -0.235644,0.101802 -0.09779,0.09776 -0.12123,0.150365 -0.10387,0.235645 l 0.0124,0.05943 -0.07028,0.07028 c -0.1117,0.112346 -0.136748,0.227004 -0.07545,0.347265 0.05417,0.106274 0.189638,0.164862 0.308508,0.133842 0.05617,-0.01467 0.08294,-0.03106 0.151412,-0.09302 0.08,-0.07246 0.08484,-0.07493 0.129708,-0.06563 0.08928,0.01847 0.128896,0.0036 0.222726,-0.0832 0.07255,-0.06708 0.08885,-0.08843 0.10697,-0.14056 0.0123,-0.03527 0.0162,-0.08302 0.0093,-0.112138 l -0.01189,-0.05064 0.447518,-0.452686 0.447518,-0.452685 0.01809,-0.06925 c 0.04909,-0.189122 -0.110643,-0.358047 -0.289388,-0.340547 z m 0.02119,0.197404 0.03411,0.01654 c 0.02696,0.01292 0.03426,0.02386 0.03566,0.05219 0.0017,0.03495 -0.0076,0.0453 -0.42633,0.464055 l -0.428398,0.428397 -0.04651,-0.04651 -0.04651,-0.04599 0.43925,-0.434082 z m -1.533757,0.0646 0.04599,0.04599 0.04651,0.04651 -0.290421,0.290422 c -0.251762,0.251753 -0.294707,0.290421 -0.319877,0.290421 -0.01601,4e-5 -0.03659,-0.0077 -0.04599,-0.01705 -0.0095,-0.0094 -0.01705,-0.03053 -0.01705,-0.04651 -2.7e-5,-0.0252 0.03866,-0.0676 0.290422,-0.31936 z m 12.312427,0.08423 c -0.09463,0.05493 -0.134312,0.07703 -0.233061,0.134358 0.01126,0.01033 0.02334,0.01926 0.03411,0.03049 0.11223,0.117032 0.15583,0.223402 0.15813,0.386539 0.0015,0.105705 -0.01341,0.179969 -0.108004,0.538469 -0.06037,0.22881 -0.10991,0.436204 -0.109554,0.460953 0.0015,0.1035 0.142933,0.155622 0.211873,0.07803 0.01922,-0.02164 0.05355,-0.123507 0.08992,-0.266134 0.03241,-0.127097 0.08469,-0.331076 0.116272,-0.453202 0.06518,-0.252073 0.07303,-0.409667 0.02739,-0.574642 -0.03514,-0.127014 -0.101691,-0.239841 -0.187069,-0.334863 z M 42.79067,42.9519 c -0.138749,0.06739 -0.246617,0.11981 -0.378788,0.183968 -0.27972,0.135786 -0.516583,0.254684 -0.526583,0.264584 -0.0098,0.0099 -0.02026,0.03865 -0.02326,0.06356 -0.0057,0.04823 0.02808,0.09551 0.07958,0.111104 0.03368,0.01019 0.0071,0.02232 0.885734,-0.40411 0.10028,-0.04867 0.09915,-0.04743 0.187069,-0.08992 -0.05566,-0.03215 -0.169913,-0.09808 -0.223759,-0.129191 z m 13.112894,0.107487 -1.194242,1.194243 -1.215946,1.216463 c 0.08141,0.04125 0.175691,0.09129 0.246496,0.125574 0.17204,-0.159202 0.491049,-0.479163 1.161686,-1.149801 0.754657,-0.754656 1.044582,-1.045011 1.178223,-1.196826 -0.05003,-0.06136 -0.107994,-0.124254 -0.176217,-0.189653 z m -44.745589,0.537435 c -0.0239,0.06937 -0.04288,0.14071 -0.05633,0.213941 1.28689,1.284079 1.58493,1.577345 1.630391,1.592667 0.07007,0.02362 0.171259,0.02362 0.241329,0 0.05104,-0.0172 0.07866,-0.04175 0.396359,-0.3545 l 0.341064,-0.335897 -0.0052,-0.04444 c -0.0067,-0.0555 -0.03481,-0.08393 -0.0894,-0.09043 l -0.04237,-0.0047 -0.32091,0.314709 c -0.307329,0.302048 -0.322519,0.315861 -0.365869,0.322461 -0.02488,0.0038 -0.0667,-2.85e-4 -0.09302,-0.0088 -0.03858,-0.01245 -0.365123,-0.335041 -1.636076,-1.60507 z m 1.962671,0.02274 0.152446,0.152962 0.152445,0.152445 -0.05064,0.05064 -0.05116,0.05064 -0.146245,-0.146244 c -0.08049,-0.08049 -0.146244,-0.151847 -0.146244,-0.158647 -10e-6,-0.0068 0.01987,-0.03227 0.04444,-0.05684 z m 18.458822,0.01447 c -0.0307,0.0017 -0.06043,0.01459 -0.08423,0.03876 -0.02934,0.0298 -0.03739,0.05759 -0.03721,0.08888 0.07864,-0.05268 0.133282,-0.09271 0.167949,-0.121956 -0.01541,-0.0048 -0.03116,-0.0066 -0.04651,-0.0057 z m 4.579048,0.01447 c 0.04133,0.03033 0.100944,0.07018 0.151929,0.105419 -0.01196,-0.06185 -0.06045,-0.105419 -0.127641,-0.105419 z m -23.167061,0.32246 0.04599,0.04651 0.04599,0.04599 -0.05839,0.05839 c -0.04507,0.04508 -0.0662,0.05856 -0.09095,0.05736 -0.03662,-0.0018 -0.0549,-0.01733 -0.0646,-0.05426 -0.0054,-0.02045 0.0059,-0.03848 0.05736,-0.08992 z m 16.52509,0.663526 c -0.172953,-0.0063 -0.346002,0.05136 -0.469222,0.167948 -0.06308,0.05969 -0.06563,0.06482 -0.06253,0.120406 l 0.0036,0.05788 0.159164,0.159163 c 0.06648,-0.03875 0.18324,-0.105998 0.24598,-0.142627 -0.0055,-0.0064 -0.06094,-0.06154 -0.06046,-0.06201 0.01931,-0.01934 0.145034,-0.033 0.209807,-0.02481 0.09546,-0.05578 0.213545,-0.124892 0.30024,-0.1757 -0.0098,-0.0063 -0.01669,-0.01357 -0.02584,-0.0186 -0.09299,-0.0512 -0.196985,-0.07789 -0.300756,-0.08165 z m -10.405567,2.00918 c -0.07105,7.46e-4 -0.141739,0.0095 -0.190169,0.02532 -0.164925,0.05404 -0.08669,-0.01872 -1.427303,1.321883 -1.343063,1.343064 -1.282612,1.277879 -1.331702,1.440222 -0.04904,0.16219 -0.0192,0.395492 0.06925,0.540536 v 5.17e-4 c 0.02165,0.03542 0.803863,0.825104 1.655196,1.679484 0.08882,-0.05132 0.159356,-0.09272 0.24753,-0.143661 l -1.672766,-1.672766 -0.02842,-0.0863 c -0.03283,-0.09841 -0.03098,-0.164126 0.0078,-0.271818 l 0.02687,-0.07596 1.21853,-1.218014 1.218014,-1.218013 0.07906,-0.02739 c 0.09107,-0.03109 0.197434,-0.02929 0.288354,0.0041 l 0.06356,0.02325 1.991093,1.991093 0.448552,0.448551 c 0.103855,-0.05991 0.154669,-0.08968 0.256315,-0.148311 -0.43646,-0.437557 -0.743454,-0.749484 -0.73639,-0.752926 0.0067,-0.0033 0.149252,-0.04194 0.316777,-0.08578 l 0.304374,-0.07958 0.595313,0.594796 0.02946,0.02945 c 0.09299,-0.05365 0.153911,-0.08907 0.244947,-0.141593 -0.36487,-0.366713 -0.761145,-0.754009 -0.791683,-0.763261 -0.02632,-0.008 -0.174416,0.02415 -0.488343,0.105936 l -0.450101,0.117306 -0.269235,-0.268201 -0.268717,-0.267684 0.09715,-0.104386 c 0.0898,-0.09656 0.09919,-0.111614 0.12454,-0.195854 0.112452,-0.373845 -0.226635,-0.712931 -0.60048,-0.60048 -0.084,0.02527 -0.09879,0.03516 -0.193787,0.123507 l -0.103353,0.0956 -0.16123,-0.150378 c -0.175565,-0.163913 -0.237479,-0.204717 -0.378272,-0.248047 -0.04826,-0.01486 -0.119636,-0.02193 -0.190686,-0.02119 z m 23.01875,0.192753 c -0.158705,0.0062 -0.314787,0.0454 -0.45837,0.11007 0.09669,0.056 0.2306,0.133247 0.330729,0.191203 0.05796,-0.01086 0.117532,-0.01757 0.178801,-0.01757 0.418791,0 0.768079,0.266987 0.897619,0.639754 0.113383,0.06552 0.218185,0.126607 0.335381,0.194304 -0.0161,-0.164923 -0.06442,-0.326064 -0.143144,-0.473873 -0.05511,-0.103364 -0.07516,-0.128865 -0.215491,-0.270268 -0.171357,-0.172743 -0.231772,-0.214488 -0.420646,-0.289388 -0.159122,-0.06311 -0.332894,-0.09097 -0.504879,-0.08423 z M 20.287651,47.09635 c 0.01965,0.0011 0.03991,0.0054 0.0615,0.01292 0.07294,0.02529 0.09849,0.05033 0.125573,0.122473 0.03104,0.08269 0.0098,0.152317 -0.07545,0.248047 l -0.06925,0.07803 -0.151928,-0.152446 -0.152446,-0.152445 0.07752,-0.06925 c 0.07149,-0.06367 0.125544,-0.09057 0.184485,-0.08733 z m 2.33319,0.04134 c -0.05422,-0.0111 -0.11622,0.01319 -0.141593,0.06356 -0.01318,0.0262 -0.01934,0.171333 -0.0186,0.418579 6e-4,0.208133 0.0045,0.387279 0.0093,0.397909 0.0175,0.03949 0.08243,0.0771 0.127641,0.0739 0.05977,-0.0042 0.09996,-0.02979 0.118856,-0.07545 0.0085,-0.02052 0.01492,-0.207703 0.01447,-0.415996 -9e-4,-0.372773 -0.0037,-0.393709 -0.05994,-0.439249 -0.01472,-0.01191 -0.03205,-0.01956 -0.05013,-0.02326 z m 0.866097,0.631486 -0.288354,0.288872 c -0.311346,0.311802 -0.310898,0.311273 -0.287838,0.390673 0.01739,0.0599 0.07888,0.09628 0.149345,0.08888 0.03245,-0.0035 0.06533,-0.03315 0.325045,-0.292489 l 0.289388,-0.288354 v -0.05478 c 1.8e-5,-0.07716 -0.05566,-0.13283 -0.132809,-0.132809 z m -4.423502,0.130225 c -0.07102,-2.52e-4 -0.133325,0.05447 -0.133325,0.133842 v 0.05478 l 0.28267,0.282153 0.28267,0.28267 h 0.05478 c 0.105782,7e-6 0.167068,-0.110695 0.113688,-0.205155 -0.03279,-0.05801 -0.470113,-0.49586 -0.528133,-0.52865 -0.02361,-0.01335 -0.04867,-0.01955 -0.07235,-0.01964 z m 25.225334,0.08682 c -0.215684,-0.0037 -0.431571,0.03394 -0.627352,0.111105 0.123266,0.07118 0.217273,0.125401 0.344681,0.198954 0.345925,-0.06757 0.70477,0.0024 1.01906,0.209806 0.08945,0.05904 0.279401,0.249328 0.340031,0.340548 0.07124,0.107181 0.122632,0.216059 0.160713,0.328145 0.114013,0.06577 0.222954,0.129124 0.339514,0.196371 -0.01391,-0.09548 -0.03472,-0.189968 -0.06563,-0.28267 -0.159241,-0.477714 -0.553557,-0.868082 -1.035079,-1.024227 -0.152902,-0.04958 -0.314475,-0.07529 -0.475939,-0.07803 z m -14.008448,0.306958 c -0.02039,0.0022 -0.04029,0.01084 -0.05736,0.02791 -0.01602,0.01602 -0.04222,0.07096 -0.05788,0.121956 -0.12293,0.400177 -0.464009,0.943186 -0.86248,1.373559 l -0.14211,0.153996 -0.03359,-0.03927 -0.03359,-0.03927 0.09095,-0.115238 c 0.12911,-0.16471 0.332913,-0.474199 0.421163,-0.639238 0.131524,-0.245979 0.233783,-0.536928 0.259416,-0.719336 l -0.262,0.151929 c -0.07452,0.245117 -0.220368,0.539595 -0.411861,0.819588 -0.118231,0.172889 -0.253077,0.345631 -0.265617,0.340031 -0.0058,-0.0026 -0.03025,-0.007 -0.05374,-0.0098 l -0.04237,-0.0052 -0.242879,0.242879 -0.243396,0.243396 -0.05323,-0.05323 c -0.04181,-0.04181 -0.06208,-0.05378 -0.09509,-0.05478 l -0.04237,-0.0016 -1.382345,1.382861 -1.382344,1.382345 -0.0016,0.04186 -0.001,0.04237 0.482658,0.482657 0.482658,0.482658 0.04186,0.0016 0.04237,10e-4 1.382345,-1.382344 1.382861,-1.382345 0.001,-0.04237 c 0.0011,-0.03465 -0.0083,-0.05168 -0.05323,-0.09663 l -0.05478,-0.05426 0.243396,-0.243396 0.242879,-0.242879 -0.0052,-0.04289 c -0.0028,-0.02349 -0.0072,-0.04733 -0.0098,-0.05323 -0.0056,-0.01257 0.16715,-0.147381 0.340031,-0.265617 0.355835,-0.243365 0.738859,-0.41764 1.008207,-0.45837 0.116412,-0.01761 0.160681,-0.04963 0.162781,-0.117306 0.002,-0.06468 -0.05107,-0.11032 -0.126091,-0.10852 -0.333751,0.0082 -0.93994,0.302163 -1.442289,0.699182 l -0.104903,0.08268 -0.03927,-0.03359 -0.03927,-0.03359 0.153996,-0.14211 c 0.434203,-0.401073 0.973154,-0.73947 1.373559,-0.86248 0.05101,-0.01567 0.105106,-0.04103 0.120406,-0.05633 0.06954,-0.06954 0.0092,-0.186467 -0.09198,-0.177767 -0.06439,0.0055 -0.222258,0.06063 -0.395325,0.137976 l -0.129707,0.05788 0.172599,-0.173116 c 0.164008,-0.164576 0.172433,-0.174964 0.173633,-0.214974 0.0017,-0.05546 -0.0488,-0.107238 -0.106454,-0.109038 -0.04107,-0.0013 -0.04655,0.0032 -0.216524,0.1726 l -0.174666,0.173632 0.05788,-0.129707 c 0.07735,-0.173068 0.132476,-0.330935 0.137976,-0.395325 0.0065,-0.07499 -0.05718,-0.128154 -0.118339,-0.12144 z m 14.170195,0.259933 c 0.238277,0.13751 0.365838,0.211587 0.61805,0.357084 -0.01667,-0.01918 -0.03088,-0.03966 -0.04909,-0.05788 -0.162454,-0.162454 -0.361631,-0.261482 -0.568957,-0.299206 z m -5.131987,0.638204 -0.0067,0.0067 -1.049031,1.054199 -0.02791,0.08578 c -0.03428,0.104677 -0.02933,0.240506 0.0124,0.334346 0.02974,0.06736 0.05555,0.09367 0.646472,0.685746 l 0.61495,0.6165 h 0.05684 c 0.07456,-1.7e-5 0.133409,-0.05473 0.139009,-0.129191 l 0.0036,-0.05064 -0.596346,-0.606164 C 38.449417,50.5154 38.470815,50.541394 38.501515,50.4367 c 0.01336,-0.04559 0.07645,-0.111075 1.020093,-1.054716 0.02532,-0.02533 0.02243,-0.02192 0.04651,-0.04599 -0.08594,-0.04977 -0.165231,-0.09583 -0.249597,-0.144694 z m 12.711369,0.05168 c -0.151812,0.0096 -0.293876,0.05832 -0.431498,0.148311 -0.150572,0.09846 -0.295862,0.295161 -0.360702,0.487826 -0.02327,0.06928 -0.04129,0.310207 -0.02894,0.390157 0.0073,0.04741 0.03169,0.133206 0.05426,0.190686 0.02255,0.05749 0.32255,0.605803 0.666626,1.21853 0.344075,0.612731 0.636916,1.146161 0.650606,1.184941 0.0451,0.127677 0.03917,0.26127 -0.0067,0.384473 0.07036,0.0407 0.154921,0.08988 0.223759,0.129707 0.02976,-0.07256 0.05206,-0.148833 0.06046,-0.228926 0.017,-0.162126 0.0041,-0.264455 -0.05013,-0.400493 -0.02373,-0.05953 -0.32096,-0.602544 -0.660424,-1.206644 -0.339467,-0.6041 -0.631583,-1.136384 -0.649573,-1.182874 -0.0462,-0.119435 -0.05325,-0.26605 -0.01809,-0.386539 0.144407,-0.494988 0.749419,-0.640006 1.100708,-0.264067 0.219094,0.234472 1.000381,1.106594 0.999422,1.115694 -6.27e-4,0.006 -0.05817,0.05676 -0.12764,0.112655 -0.18663,0.150178 -0.186687,0.147665 0.05581,0.447518 l 0.192753,0.238745 -0.03721,0.03824 c -0.02226,0.02292 -0.03898,0.05962 -0.04237,0.0925 -0.0055,0.05219 0.04383,0.116636 1.058334,1.369426 1.059419,1.308246 1.064599,1.314449 1.126029,1.320849 0.05515,0.0057 0.07242,-0.0024 0.163815,-0.07648 l 0.102319,-0.0832 0.374654,0.467155 c 0.28847,0.359372 0.39373,0.479325 0.45682,0.521415 0.08289,0.05532 0.436476,0.188004 0.526066,0.197404 0.06141,0.0064 0.123708,-0.04022 0.129708,-0.09767 0.007,-0.06647 -0.05525,-0.475611 -0.08372,-0.550871 -0.01514,-0.04004 -0.177993,-0.255814 -0.411861,-0.54622 l -0.38654,-0.480074 0.100769,-0.08423 c 0.0874,-0.07321 0.10167,-0.09173 0.10697,-0.142627 0.006,-0.05729 -0.01783,-0.08781 -1.062467,-1.377176 -0.999863,-1.234121 -1.071395,-1.318851 -1.120345,-1.323951 -0.03292,-0.0035 -0.06672,0.0055 -0.09147,0.02429 l -0.03979,0.02997 -0.194303,-0.239779 c -0.246635,-0.303863 -0.238728,-0.30115 -0.442867,-0.134876 l -0.141593,0.115239 -0.09095,-0.100252 c -0.04998,-0.05501 -0.29601,-0.326919 -0.546737,-0.604615 -0.402707,-0.44601 -0.469193,-0.513122 -0.571541,-0.576192 -0.138603,-0.08541 -0.232566,-0.117645 -0.396875,-0.134875 -0.05293,-0.0055 -0.104942,-0.0063 -0.155546,-0.0031 z m -31.583602,0.06356 c -0.02522,0.0046 -0.05049,0.0169 -0.07183,0.03824 -0.03053,0.03055 -0.03875,0.05056 -0.03876,0.09353 -3e-5,0.043 0.0082,0.06352 0.03876,0.09405 0.08537,0.08537 0.226343,0.02667 0.226343,-0.09405 -2e-6,-0.09053 -0.07886,-0.145718 -0.154513,-0.131775 z m 0.603581,0.108521 c -0.07827,-0.0039 -0.15278,0.102753 -0.12454,0.178283 0.01786,0.04781 0.04405,0.07073 0.123506,0.106454 0.03851,0.0173 0.07326,0.03991 0.109554,0.06046 0.06493,-0.03746 0.174176,-0.100892 0.236678,-0.136942 0.01357,-0.0078 0.01902,-0.0108 0.03256,-0.0186 -0.144942,-0.10162 -0.307762,-0.186173 -0.377755,-0.189652 z m -1.160653,0.0031 c -0.06235,10e-7 -0.242865,0.0888 -0.387056,0.190169 -0.120864,0.08498 -0.301148,0.265498 -0.393258,0.393258 -0.235865,0.32719 -0.331588,0.724545 -0.297656,1.115178 0.09177,-0.05301 0.175252,-0.101291 0.265617,-0.153479 0.0022,-0.310923 0.105008,-0.617453 0.312642,-0.876433 0.126698,-0.15803 0.341498,-0.322557 0.513664,-0.393257 0.09427,-0.0387 0.133917,-0.101824 0.110587,-0.175184 -0.02075,-0.06522 -0.06413,-0.100252 -0.12454,-0.100252 z m 20.09128,0.15658 -0.405143,0.405143 -0.507462,0.506946 v 0.05684 0.05684 l 0.88625,0.886251 0.886251,0.886251 h 0.05684 0.05684 l 0.506946,-0.506946 0.506946,-0.506946 v -0.05684 l 5.17e-4,-0.05684 -0.886251,-0.886251 -0.348816,-0.348816 c -0.272885,-0.157918 -0.48734,-0.281871 -0.752926,-0.435632 z m 0.158647,0.22996 0.748275,0.748791 0.748791,0.748792 -0.369486,0.369486 -0.369487,0.369487 -0.748274,-0.748792 -0.748792,-0.748791 0.369487,-0.369487 z m -8.312671,0.06201 -0.65474,0.654223 -0.654224,0.654741 -0.05323,-0.05323 c -0.04181,-0.04181 -0.06259,-0.05378 -0.0956,-0.05478 l -0.04186,-10e-4 -0.279569,0.279053 -0.27957,0.27957 -0.05323,-0.05323 c -0.04181,-0.04181 -0.06259,-0.05326 -0.0956,-0.05426 l -0.04186,-0.0016 -1.382345,1.382345 -1.350305,1.350305 c 0.269582,-0.156198 0.417951,-0.241192 0.711585,-0.411344 l 0.787032,-0.787549 1.274857,-1.274341 0.224793,0.224793 0.225309,0.224792 -0.374137,0.374137 0.632003,-0.365869 v -0.0067 c 0.0011,-0.03465 -0.0088,-0.05167 -0.05374,-0.09663 l -0.05426,-0.05478 0.278019,-0.278536 c 0.272738,-0.272755 0.278269,-0.278637 0.279569,-0.319877 0.0011,-0.03465 -0.0083,-0.05168 -0.05323,-0.09664 l -0.05478,-0.05478 0.65319,-0.65319 0.65319,-0.65319 0.0015,-0.04186 c 0.0017,-0.05545 -0.04931,-0.107237 -0.10697,-0.109037 z m -11.436511,0.02067 c -0.14955,0.0108 -0.298173,0.05342 -0.441834,0.127641 -0.131307,0.06784 -0.318586,0.244795 -0.401525,0.379822 -0.07372,0.120016 -0.120245,0.248873 -0.144694,0.380338 0.121943,-0.07042 0.247982,-0.143512 0.366385,-0.211873 0.03286,-0.05517 0.07078,-0.108106 0.120406,-0.15813 0.100874,-0.10167 0.179186,-0.152121 0.308509,-0.197921 0.08639,-0.0306 0.176158,-0.04429 0.265617,-0.04496 0.111246,-0.06421 0.263289,-0.152146 0.369486,-0.213424 -0.146567,-0.05137 -0.295031,-0.07214 -0.44235,-0.0615 z m 8.478035,0.08837 0.224793,0.225309 0.225309,0.224793 -0.187585,0.187585 -0.187586,0.187069 -0.224792,-0.224793 -0.224793,-0.224792 0.187069,-0.187586 z m -0.674894,0.375171 0.245463,0.246496 0.245463,0.246497 -0.359668,-0.118339 c -0.197904,-0.06499 -0.363219,-0.12094 -0.367419,-0.12454 -0.0041,-0.0035 0.0472,-0.06115 0.114205,-0.128158 z m -14.461649,0.08372 c -0.06068,-0.01175 -0.124874,0.03128 -0.127124,0.103352 -0.0029,0.09375 0.114834,0.144065 0.181384,0.07752 0.04477,-0.0448 0.04584,-0.106602 0.0026,-0.149862 -0.01703,-0.01703 -0.03662,-0.02709 -0.05684,-0.03101 z m -2.000395,0.135909 c -0.147514,0.08534 -0.390209,0.226292 -0.529684,0.306958 l 0.03617,0.03669 0.07493,0.07493 -0.224793,0.224792 -0.224792,0.224793 -0.07493,-0.07493 -0.07493,-0.07493 0.224793,-0.224792 0.0801,-0.08062 c -0.148611,0.08594 -0.437961,0.254436 -0.576192,0.334347 l 0.19637,0.195854 0.224793,0.225309 -1.2748578,1.274341 -1.2743408,1.274857 -0.2253092,-0.225309 -0.2247925,-0.224793 1.2748576,-1.27434 1.1663367,-1.166854 c -0.167727,0.09695 -0.5621529,0.325967 -0.7126176,0.412894 l -0.6025472,0.602548 -1.3823446,1.382344 -0.00155,0.04237 -0.00103,0.04186 0.3327962,0.332796 c 0.3288157,0.328838 0.3330942,0.333047 0.3746541,0.334347 l 0.042375,0.001 1.3823446,-1.382344 1.3823445,-1.382862 0.0015,-0.04186 c 0.0011,-0.03465 -0.0083,-0.05168 -0.05323,-0.09664 l -0.05478,-0.05478 0.27802,-0.278019 C 11.563468,51.037768 11.569,51.03137 11.5703,50.99013 11.5714,50.95548 11.562,50.93845 11.51707,50.8935 l -0.05426,-0.05478 z m 1.64021,0.159163 -0.542086,0.542086 c -0.50201,0.502007 -0.542959,0.540696 -0.557589,0.526066 -0.0087,-0.0087 -0.03474,-0.01632 -0.05788,-0.01705 -0.04187,-0.0013 -0.04333,-8e-5 -0.284221,0.240812 l -0.241845,0.241846 -0.05323,-0.05323 c -0.04181,-0.04181 -0.06259,-0.05378 -0.0956,-0.05478 l -0.04186,-10e-4 -1.382862,1.382345 -1.3823442,1.382861 -0.00103,0.04186 -0.00155,0.04186 0.5581055,0.558105 0.5575887,0.557589 0.041858,10e-4 0.042375,0.0016 1.382344,-1.382345 1.382345,-1.382861 0.0015,-0.04186 c 0.0011,-0.03465 -0.0083,-0.05167 -0.05323,-0.09663 l -0.05478,-0.05478 0.240813,-0.240812 c 0.234246,-0.234265 0.240545,-0.24173 0.241845,-0.28267 7.3e-4,-0.02314 -0.0061,-0.05003 -0.0155,-0.05943 -0.01633,-0.01633 0.0063,-0.04039 0.523483,-0.557589 l 0.540535,-0.540535 0.0015,-0.04237 c 0.0017,-0.05546 -0.04931,-0.107237 -0.10697,-0.109037 l -0.04186,-0.001 -0.542086,0.542086 -0.542085,0.541569 -0.07493,-0.07493 -0.07493,-0.07493 0.278536,-0.27802 c 0.272737,-0.272755 0.27827,-0.279144 0.279569,-0.320394 0.0017,-0.05546 -0.04932,-0.107237 -0.10697,-0.109037 l -0.04186,-0.0016 -0.279569,0.279569 -0.27957,0.27957 -0.07493,-0.07493 -0.07493,-0.07493 0.540535,-0.540535 0.540536,-0.541052 0.0015,-0.04186 c 0.0017,-0.05545 -0.0488,-0.107238 -0.106453,-0.109038 z m 0.659908,0.0047 c -0.06068,-0.01176 -0.124874,0.03128 -0.127124,0.103353 -0.0029,0.09375 0.114834,0.144064 0.181384,0.07751 0.04477,-0.0448 0.04584,-0.106601 0.0026,-0.149861 -0.01703,-0.01704 -0.03662,-0.02709 -0.05684,-0.03101 z m 40.066805,0 0.139526,0.172599 0.140043,0.172599 -0.239778,0.194304 -0.240296,0.19482 -0.136425,-0.168465 c -0.07515,-0.09244 -0.136378,-0.1712 -0.135909,-0.1757 4.5e-4,-0.0045 0.106923,-0.09403 0.236678,-0.198954 z m -26.331209,0.04289 0.555521,0.185002 c 0.305408,0.101856 0.557156,0.187669 0.559656,0.190169 0.0025,0.0025 -0.05519,0.06449 -0.128674,0.137976 l -0.133842,0.133842 -0.555005,-0.185518 c -0.30541,-0.101857 -0.557673,-0.187153 -0.560173,-0.189653 -0.0025,-0.0025 0.0557,-0.065 0.129191,-0.138492 z m -14.053406,0.253732 c -0.04052,-0.0013 -0.04774,0.0043 -0.187586,0.144177 -0.136366,0.136361 -0.145561,0.148125 -0.146761,0.187585 -0.0017,0.05546 0.04932,0.107238 0.106971,0.109038 0.04052,0.0013 0.04723,-0.0043 0.187068,-0.144178 0.136367,-0.136369 0.145561,-0.148125 0.146761,-0.187585 0.0017,-0.05546 -0.0488,-0.107237 -0.106453,-0.109037 z m 0.617533,0.0031 c -0.06068,-0.01175 -0.124874,0.03129 -0.127124,0.103353 -0.0029,0.09375 0.115351,0.144065 0.181901,0.07751 0.04477,-0.0448 0.04584,-0.106602 0.0026,-0.149862 -0.01703,-0.01703 -0.03713,-0.02709 -0.05736,-0.03101 z m 40.338623,0.130225 0.08527,0.10542 0.08527,0.10542 -0.374654,0.30334 -0.374654,0.303341 -0.08217,-0.100252 c -0.04523,-0.05519 -0.08214,-0.103821 -0.08165,-0.108521 4.25e-4,-0.0046 0.167692,-0.143471 0.371553,-0.308508 z m -11.901599,0.02325 c -0.05637,0.0036 -0.111365,0.01353 -0.155546,0.03359 -0.106822,0.04851 -0.216071,0.165652 -0.252181,0.270268 -0.03441,0.09981 -0.03087,0.258222 0.0083,0.346232 0.02083,0.04684 0.05548,0.09519 0.101286,0.141593 0.09934,0.100785 0.194175,0.141077 0.332796,0.141077 0.189145,10e-7 0.353219,-0.10686 0.433049,-0.282153 0.04804,-0.105475 0.04804,-0.266599 0,-0.372071 -0.0018,-0.004 -0.0047,-0.0079 -0.0067,-0.01188 -0.156463,-0.09041 -0.299596,-0.173383 -0.460954,-0.266651 z m -15.450736,0.03927 0.555005,0.185519 c 0.305409,0.101855 0.557672,0.187152 0.560172,0.189652 0.0025,0.0025 -0.0557,0.065 -0.129191,0.138493 l -0.133325,0.133325 -0.555522,-0.185001 c -0.305409,-0.101857 -0.557156,-0.187153 -0.559656,-0.189653 -0.0025,-0.0025 0.05519,-0.065 0.128675,-0.138493 z m 3.050459,0.0987 0.07493,0.07493 0.07493,0.07493 -0.224792,0.225309 -0.224793,0.224793 -0.07545,-0.07493 -0.07493,-0.07493 0.225309,-0.225309 z m 12.405962,0.144694 c 0.140645,-0.02421 0.268751,0.131465 0.189135,0.271818 -0.04062,0.07159 -0.132138,0.112824 -0.199988,0.09043 -0.06659,-0.022 -0.09857,-0.04797 -0.125056,-0.102836 -0.04315,-0.08936 -0.01181,-0.188212 0.07545,-0.237712 0.02004,-0.01137 0.04037,-0.01825 0.06046,-0.0217 z m 12.215791,0.100769 0.08423,0.107487 0.08475,0.107487 -0.370003,0.30024 -0.37052,0.30024 -0.08165,-0.100769 -0.08217,-0.101285 0.367419,-0.306958 z m -28.122314,0.105937 0.555522,0.185002 c 0.305408,0.101856 0.557155,0.187669 0.559655,0.190169 0.0025,0.0025 -0.05518,0.06449 -0.128674,0.137976 L 27.719755,52.323938 27.16475,52.13842 c -0.305411,-0.101857 -0.557672,-0.187153 -0.560172,-0.189653 -0.0025,-0.0025 0.05518,-0.06449 0.128674,-0.137976 z m -16.510103,0.03204 c -0.06068,-0.01175 -0.124874,0.03129 -0.127124,0.103353 -0.0029,0.09374 0.115361,0.144065 0.181901,0.07751 0.04477,-0.0448 0.04584,-0.106602 0.0026,-0.149862 -0.01703,-0.01703 -0.03713,-0.02709 -0.05736,-0.03101 z m 33.477543,0.09612 c -0.09617,0.105851 -0.321581,0.332432 -0.939478,0.950329 -0.943642,0.943643 -1.009126,1.00724 -1.054716,1.02061 -0.104672,0.03068 -0.07873,0.05212 -0.751892,-0.610299 l -0.606164,-0.596346 -0.05064,0.0036 c -0.07447,0.0056 -0.128675,0.06442 -0.128675,0.13901 v 0.05684 l 0.612883,0.612883 c 0.600152,0.600157 0.61437,0.613329 0.68833,0.646988 0.103277,0.04704 0.271891,0.04704 0.375171,0 0.0641,-0.02919 0.09666,-0.05584 0.216007,-0.175183 l 0.14056,-0.14056 0.09663,0.09663 c 0.09037,0.09036 0.09615,0.09887 0.09095,0.13746 -0.0052,0.03894 0.221809,0.948597 0.260449,1.043347 0.01,0.02443 0.0457,0.07206 0.07958,0.105937 0.104209,0.104209 0.242909,0.133462 0.382922,0.08113 0.05363,-0.02002 0.10953,-0.07387 1.053166,-1.017509 0.943635,-0.943638 0.997469,-0.999556 1.017509,-1.053166 0.05233,-0.140013 0.02308,-0.278197 -0.08113,-0.382406 -0.03388,-0.03388 -0.08146,-0.0702 -0.105937,-0.0801 -0.09694,-0.03933 -1.004041,-0.265849 -1.042831,-0.260449 -0.0389,0.0054 -0.04735,-3.21e-4 -0.137976,-0.09095 l -0.09663,-0.09612 0.14056,-0.141077 c 0.03945,-0.03945 0.07084,-0.07221 0.09715,-0.102836 -0.07974,-0.04605 -0.173692,-0.100373 -0.255798,-0.147794 z m -2.022099,0.176216 -0.273368,0.273369 -0.273886,0.273885 v 0.05684 0.05684 l 0.273886,0.273885 0.273368,0.273368 h 0.05684 0.05684 L 42.2,52.916192 42.473885,52.642307 v -0.05684 -0.05684 L 42.2,52.254742 41.926115,51.981373 h -0.05684 z m 13.505119,0.01809 c 0.0068,-0.0015 0.293673,0.344382 0.63717,0.768429 l 0.624251,0.771012 -0.37052,0.30024 -0.371036,0.299723 -0.627869,-0.774629 -0.627869,-0.775147 0.361735,-0.293522 c 0.198985,-0.161345 0.367338,-0.294606 0.374138,-0.296106 z m -45.3202314,0.0052 -0.5953125,0.595312 -0.5953125,0.594796 -0.00103,0.04237 c -0.00169,0.05546 0.048803,0.107237 0.1064534,0.109037 l 0.041858,0.0016 0.5953125,-0.595312 0.5953125,-0.595313 0.0016,-0.04237 c 0.0017,-0.05546 -0.04931,-0.107237 -0.10697,-0.109037 z m 2.2153684,0.03411 0.299724,0.299723 0.299723,0.30024 -0.187069,0.187069 -0.187585,0.187586 -0.30024,-0.299724 -0.299724,-0.30024 0.187586,-0.187068 z m 14.204301,0.08837 0.555522,0.185001 c 0.305408,0.101855 0.557672,0.187153 0.560172,0.189653 0.0025,0.0025 -0.0557,0.065 -0.129191,0.138493 l -0.133325,0.133325 -0.555522,-0.185002 c -0.305409,-0.101856 -0.557672,-0.187152 -0.560172,-0.189652 -0.0025,-0.0025 0.0557,-0.065 0.129191,-0.138493 z m 13.608989,0.01033 c -0.0785,-0.01447 -0.160719,0.04301 -0.160714,0.136943 10e-6,0.04456 0.0086,0.06548 0.04031,0.09715 0.08858,0.08858 0.235134,0.0281 0.235127,-0.09715 -10e-6,-0.04456 -0.0092,-0.06548 -0.04082,-0.09715 -0.02214,-0.02215 -0.04773,-0.03497 -0.0739,-0.03979 z M 29.56202,52.19578 c -0.06068,-0.01175 -0.124874,0.03129 -0.127124,0.103353 -0.0029,0.09374 0.114844,0.144065 0.181384,0.07752 0.04477,-0.0448 0.04584,-0.106602 0.0026,-0.149862 -0.01703,-0.01703 -0.03662,-0.02709 -0.05684,-0.03101 z m 12.307259,0.117306 0.136426,0.136426 0.135909,0.135909 -0.135909,0.135909 -0.136426,0.136426 -0.135909,-0.136426 -0.135909,-0.135909 0.135909,-0.135909 z m 1.789038,0.07803 0.09715,0.09715 0.09715,0.09715 -0.563789,0.56379 -0.56379,0.563789 -0.09715,-0.09715 -0.09715,-0.09715 0.56379,-0.56379 z m -32.12052,0.02222 0.449585,0.450102 0.450102,0.450102 -1.274858,1.27434 -1.2743407,1.274858 -0.4501017,-0.450102 -0.449585,-0.449585 1.2743404,-1.274857 z m 17.664555,0.07751 -0.595313,0.595312 -0.339514,0.339515 0.712618,-0.412895 0.369487,-0.36897 10e-4,-0.04237 c 0.0017,-0.05546 -0.04879,-0.107237 -0.106453,-0.109037 z m -3.234945,0.08578 0.555005,0.185001 c 0.305408,0.101857 0.557673,0.18767 0.560173,0.19017 0.0025,0.0025 -0.05519,0.06449 -0.128675,0.137976 l -0.133842,0.133842 -0.555521,-0.185002 c -0.30541,-0.101857 -0.557156,-0.187669 -0.559656,-0.190169 -0.0025,-0.0025 0.05518,-0.06449 0.128674,-0.137976 z m 18.182353,0.101802 0.425297,0.110071 c 0.233993,0.06068 0.436642,0.11599 0.450102,0.12299 0.01624,0.0084 0.02429,0.02891 0.02429,0.0615 v 0.04909 l -0.944129,0.944128 -0.943611,0.943612 h -0.04754 -5.17e-4 c -0.02622,0 -0.05099,-0.0035 -0.05529,-0.0078 -0.01127,-0.01127 -0.03134,-0.08368 -0.142111,-0.511596 l -0.0987,-0.380339 0.666109,-0.666109 z m -32.652787,0.07597 -0.595313,0.595312 -0.595312,0.594796 -10e-4,0.04237 c -0.0017,0.05546 0.0488,0.107237 0.106454,0.109037 l 0.04186,0.0016 0.595313,-0.595312 0.595312,-0.595313 0.0016,-0.04237 c 0.0017,-0.05546 -0.04932,-0.107237 -0.10697,-0.109037 z m 10.765751,0.06149 c -0.144586,0.08332 -0.508341,0.2946 -0.626835,0.362768 -0.100626,0.05789 -0.19276,0.114578 -0.291972,0.172599 l -0.463021,0.463021 -0.07596,0.02739 c -0.107691,0.03874 -0.173935,0.04059 -0.272335,0.0078 l -0.01602,-0.0052 c -0.09258,0.05669 -0.17029,0.106875 -0.258382,0.161747 0.0025,0.0021 0.03393,0.03331 0.03514,0.03411 0.146719,0.09622 0.390803,0.131189 0.557589,0.0801 0.160692,-0.04917 0.119276,-0.01169 1.4118,-1.304313 z m -14.487488,0.06098 c -0.2619209,0.162401 -0.5048486,0.31912 -0.712618,0.460437 l 0.082682,0.08268 0.042375,0.001 0.041858,0.0016 z m 18.127576,0.280086 0.359668,0.118339 c 0.197904,0.06499 0.363219,0.12094 0.367419,0.12454 0.0041,0.0035 -0.0472,0.06115 -0.114205,0.128158 l -0.121956,0.121956 -0.245463,-0.246496 z m 30.580562,0.794784 0.07958,0.102319 0.07958,0.102319 -0.103869,0.08423 -0.10387,0.08423 -0.08217,-0.101285 -0.08165,-0.101286 0.105937,-0.08527 z m -46.351176,0.23151 c -0.06068,-0.01176 -0.124874,0.03128 -0.127124,0.103353 -0.0029,0.09375 0.115361,0.144064 0.181901,0.07751 0.04477,-0.0448 0.04584,-0.106602 0.0026,-0.149862 -0.01703,-0.01704 -0.03713,-0.02709 -0.05736,-0.03101 z m 46.668469,0.181384 0.08217,0.100253 0.08217,0.100252 -0.101285,0.08216 -0.101286,0.08217 -0.08217,-0.101286 -0.08165,-0.101286 0.10077,-0.08113 z m -21.232812,0.258899 -0.602547,0.602031 -0.814938,0.815454 -0.0041,0.05168 c -0.0025,0.02857 0.0031,0.06295 0.0124,0.07648 0.02992,0.04323 0.07057,0.06361 0.125056,0.06201 l 0.05323,-0.0021 0.815454,-0.815454 0.653707,-0.653707 c -0.08201,-0.04723 -0.158861,-0.09117 -0.238228,-0.136426 z m 21.559924,0.145728 0.04289,0.05013 c 0.02348,0.0275 0.05239,0.07504 0.06408,0.105937 0.02478,0.06562 0.04573,0.205337 0.03256,0.216007 -0.01237,0.01003 -0.171925,-0.04447 -0.216525,-0.0739 -0.01985,-0.01307 -0.05587,-0.04894 -0.0801,-0.0801 l -0.04393,-0.05684 0.100769,-0.08062 z M 35.82572,55.154256 c -0.04027,0.0014 -0.0463,0.007 -0.536401,0.497127 l -0.49506,0.495577 v 0.05478 c 3e-5,0.04292 0.0082,0.06302 0.03876,0.09353 0.03052,0.03051 0.05058,0.03876 0.09353,0.03876 h 0.05478 l 0.496094,-0.496094 0.496094,-0.495577 v -0.04857 c -2.7e-5,-0.08632 -0.05978,-0.142627 -0.147795,-0.139527 z m 0.475423,0.280086 -0.04703,0.0016 -0.670243,0.671277 c -0.725998,0.726625 -0.691673,0.686532 -0.665593,0.769462 0.0022,0.007 0.0051,0.0094 0.0078,0.01602 0.02795,0.0158 0.09936,0.0575 0.129191,0.07441 8.16e-4,-1.2e-5 0.0018,5.45e-4 0.0026,5.17e-4 0.04055,-0.0014 0.04341,-0.0041 0.712102,-0.672827 l 0.671793,-0.671277 0.0016,-0.04702 c 0.0033,-0.08583 -0.05628,-0.145411 -0.142111,-0.142111 z m -17.42891,0.353984 c -0.05664,-5.16e-4 -0.103014,0.0016 -0.134359,0.0072 -0.07245,0.01314 -0.112619,0.05965 -0.102319,0.118339 0.01355,0.07695 0.04932,0.09055 0.253215,0.09405 0.239899,0.0041 0.386605,0.0201 0.609265,0.06718 0.429049,0.09072 0.859352,0.287557 1.227832,0.561723 0.15485,0.115193 0.447952,0.402833 0.558622,0.548287 0.04031,0.05298 0.07502,0.11002 0.112138,0.165365 0.05649,-0.02951 0.129023,-0.06944 0.190686,-0.10232 -0.01681,-0.02525 -0.03006,-0.05274 -0.04754,-0.07751 -0.12195,-0.172913 -0.433275,-0.503974 -0.604615,-0.642338 -0.404959,-0.326997 -0.920305,-0.569274 -1.420585,-0.668694 -0.212107,-0.04216 -0.472422,-0.06977 -0.642338,-0.07131 z m 18.839677,0.10697 c -0.208451,0.02347 -0.41065,0.09441 -0.578776,0.217558 -0.05143,0.03767 -0.371746,0.353225 -1.000456,0.98547 l -0.307991,0.309541 c 0.07649,0.04384 0.150003,0.08607 0.234094,0.134359 l 0.140043,-0.143144 0.523482,0.523483 c 0.148297,0.08544 0.157531,0.08959 0.322978,0.185001 0.185767,0.107132 0.369322,0.202266 0.545186,0.289388 l -0.499711,-0.499711 -0.694531,-0.694531 0.437183,-0.429431 c 0.368248,-0.36156 0.449043,-0.436506 0.512113,-0.473356 0.329504,-0.192471 0.710599,-0.184974 1.013892,0 -0.193789,-0.12401 -0.413827,-0.260741 -0.647506,-0.404627 z m -19.314067,0.04031 c -9.8e-4,0.01469 -0.003,0.02921 -0.0036,0.04393 0.0037,-0.0102 0.0068,-0.02043 0.0072,-0.03359 1.11e-4,-0.0036 -0.0033,-0.0067 -0.0036,-0.01034 z m 43.067656,0.01188 c -0.04287,0 -0.08589,0.0058 -0.120923,0.01757 -0.05211,0.01757 -0.07891,0.04238 -0.541569,0.500228 l -0.462504,0.457337 c 0.182482,-0.04856 0.347973,-0.110493 0.464054,-0.186552 0.0015,-9.68e-4 0.0027,-0.0021 0.0041,-0.0031 l 0.07441,-0.07441 0.01085,0.01085 c 0.05754,-0.04217 0.11279,-0.08591 0.163814,-0.132291 l -0.0279,-0.02791 0.177766,-0.172082 c 0.0564,-0.05458 0.09635,-0.09146 0.129708,-0.11989 0.05704,-0.08439 0.105924,-0.17355 0.147278,-0.267167 -0.0067,-2.94e-4 -0.01235,-0.0026 -0.01912,-0.0026 z m -25.164356,0.191203 -0.261482,0.261483 -0.262,0.261999 v 0.05478 c 3e-5,0.04292 0.0082,0.06302 0.03876,0.09353 0.03051,0.03051 0.0511,0.03876 0.09405,0.03876 h 0.05478 l 0.260966,-0.260966 c 0.252311,-0.252314 0.261633,-0.262987 0.263033,-0.302307 0.0031,-0.08804 -0.0537,-0.147271 -0.140044,-0.147278 z m 2.137854,0.213424 c 0.03686,0.02776 0.07285,0.05683 0.106454,0.09043 0.319649,0.319648 0.376837,0.798968 0.142627,1.199926 -0.03685,0.06307 -0.111776,0.143886 -0.473356,0.512114 l -0.362769,0.36897 c 0.099,0.0446 0.182153,0.07751 0.259933,0.106453 0.380756,-0.38092 0.734064,-0.735321 0.76326,-0.775146 0.224236,-0.306112 0.282651,-0.724045 0.176217,-1.08934 -0.129574,-0.09767 -0.354416,-0.24699 -0.612366,-0.413411 z m -20.011698,0.04186 c 0.01429,0.07206 0.03247,0.143232 0.05529,0.213423 0.0079,-2.39e-4 0.01527,-0.0014 0.02325,-0.0016 0.59575,-0.01283 1.157747,0.173217 1.691887,0.560173 0.153826,0.111397 0.374318,0.330296 0.527099,0.51573 0.06236,-0.02713 0.129476,-0.05696 0.203089,-0.09198 -0.0084,-0.01103 -0.01569,-0.02264 -0.02429,-0.03359 -0.09804,-0.124942 -0.385107,-0.412007 -0.510047,-0.510047 -0.586776,-0.46045 -1.276328,-0.686919 -1.966288,-0.652156 z m 19.301147,0.28267 c -0.04663,-0.0027 -0.06308,0.0037 -0.09715,0.03772 -0.03407,0.03406 -0.04032,0.05007 -0.03772,0.09663 l 0.0031,0.05581 0.261999,0.262 0.262,0.261999 0.05633,0.0031 c 0.04662,0.0027 0.06256,-0.0036 0.09663,-0.03772 0.03407,-0.03407 0.04032,-0.05007 0.03772,-0.09663 l -0.0031,-0.05581 -0.261999,-0.261999 -0.262,-0.262 z m -0.316259,0.353467 c -0.05006,-0.01593 -0.118732,0.0076 -0.148312,0.05116 -0.02481,0.03647 -0.02684,0.113538 -0.0041,0.147278 0.02664,0.03951 0.453313,0.467593 0.491443,0.492993 0.07336,0.0489 0.170048,0.02001 0.203088,-0.06046 0.03246,-0.07896 0.017,-0.100822 -0.254764,-0.372587 -0.203627,-0.203627 -0.251471,-0.246972 -0.287321,-0.258382 z m 1.250053,1.469161 -0.181901,0.181901 c 0.09553,-0.0253 0.210615,-0.07887 0.326595,-0.145728 -0.02419,-0.02239 -0.05672,-0.03617 -0.09663,-0.03617 z" /></g></svg>
